<?xml version="1.0" encoding="UTF-8"?>
<svg id="Layer_1" data-name="Layer 1" xmlns="http://www.w3.org/2000/svg" viewBox="0 0 31.5 31.5">
  <defs>
    <style>
      .cls-1 {
        fill: #2e5077;
      }
    </style>
  </defs>
  <path class="cls-1" d="M14.25.45L.45,14.85c-.6.7-.6,1.7,0,2.4l14.4,13.8c.7.6,1.7.6,2.4,0l13.8-14.4c.6-.7.6-1.7,0-2.4L16.55.45c-.7-.6-1.7-.6-2.4,0h.1ZM28.55,14.45c.6.5.6,1.4,0,2l-11.6,12.1c-.5.6-1.4.6-2,0L2.85,16.95c-.6-.5-.6-1.4,0-2L14.45,2.85c.5-.6,1.4-.6,2,0l12.1,11.6Z"/>
  <path class="cls-1" d="M13.85,4.95L4.85,14.35c-.9.9-.8,2.4,0,3.3l9.4,9c.9.9,2.4.8,3.3,0l9-9.4c.9-.9.8-2.4,0-3.3l-9.4-9c-.9-.9-2.4-.8-3.3,0ZM19.65,12.45v6.7c0,.3-.3.6-.6.6h-6.7c-.3,0-.6-.3-.6-.6v-6.7c0-.3.3-.6.6-.6h6.7c.3,0,.6.3.6.6Z"/>
</svg>