<?xml version="1.0" encoding="UTF-8"?>
<svg id="Layer_1" data-name="Layer 1" xmlns="http://www.w3.org/2000/svg" viewBox="0 0 123.95 31.55">
  <defs>
    <style>
      .cls-1 {
        fill: #2e5077;
      }

      .cls-2 {
        fill: #f6f4f0;
      }
    </style>
  </defs>
  <g>
    <path class="cls-2" d="M.9,5.65h11.5c4.5,0,6.8,2.1,6.8,6.4s-.3,3.2-1,4.1c-.6.9-1.6,1.5-3,1.9h0c.9.4,1.7.7,2.3,1.1s1,1,1.3,1.8.5,1.9.5,3.3c0,2.3-.6,4-1.7,5.1-1.1,1.1-2.9,1.7-5.3,1.7H.9V5.65ZM11.1,15.65c.2,0,.4-.3.5-.6s.1-.8.1-1.5,0-1.3-.1-1.5c0-.3-.3-.5-.5-.6h-2.7v4.4h2.7v-.2ZM11.1,25.35c.2,0,.4-.3.5-.6s.1-.8.1-1.6,0-1.3-.1-1.6c0-.3-.3-.5-.5-.6-.2,0-.7-.1-1.3-.1h-1.4v4.7h1.4c.6,0,1,0,1.3-.1h0v-.1ZM34.6,31.25c-1.1.1-2.2.2-3.2.2-2.9,0-5-.4-6.3-1.2-1.3-.8-2.2-2.1-2.7-3.8-.4-1.8-.6-4.4-.6-8s.2-6.2.6-8,1.3-3,2.7-3.8c1.4-.8,3.5-1.2,6.3-1.2s2.1,0,3.1.2c1.1,0,2,.3,2.6.5v5.4c-2.1-.2-3.5-.3-4.1-.3-1.3,0-2.2,0-2.6.4-.5.3-.8.9-.9,1.8-.1.9-.2,2.6-.2,5s0,4.2.2,5.1c.1.9.4,1.5.9,1.7.5.3,1.3.4,2.6.4s2.8,0,4.2-.3v5.4c-.7.2-1.6.3-2.7.4h.1v.1ZM40.4,30.05c-.7-.9-1.1-2.4-1.1-4.4s.2-2.6.5-3.4.9-1.4,1.6-1.8,1.9-.5,3.4-.5,2.2,0,3.6.1v-.7c0-.7,0-1.3-.2-1.5s-.4-.5-.9-.5h-2.4c-1.2,0-3,0-4.8.2v-4.8c2.4-.4,4.7-.6,7-.6s4.3.3,5.5.8,2,1.4,2.3,2.4c.4,1.1.5,2.6.5,4.6v11.3h-6.8v-2.1h-.5c-.5.9-1.2,1.5-1.8,1.9-.7.3-1.5.5-2.4.5-1.6,0-2.8-.5-3.5-1.4h0v-.1ZM48,26.35c.2,0,.3-.3.4-.5v-2.6h-1.3c-.6,0-1,.1-1.2.3s-.2.7-.2,1.5,0,1,.2,1.2.5.3,1.1.3.6,0,.8-.1h.2v-.1ZM58.4,12.25h6.8v3.1h.5c.5-1.3,1.1-2.1,1.8-2.6s1.8-.7,3.1-.7v6.5c-1.3,0-2.3.1-3.1.4-.7.3-1.3.8-1.6,1.6-.4.8-.5,1.9-.5,3.5v7.3h-7V12.25h0ZM74.2,30.55c-.7-.6-1.3-1.5-1.6-2.9-.3-1.4-.5-3.4-.5-5.9s.2-4.5.5-5.9.9-2.4,1.6-3,1.8-.9,3-.9,1.8.2,2.5.5,1.2.9,1.7,1.7h.4V3.65h7v27.5h-6.8v-2.1h-.5c-.7,1.6-2.1,2.4-4.3,2.4s-2.3-.3-3-.8h0v-.1ZM81.4,25.55c.2-.1.3-.4.3-.8v-6c0-.5-.2-.8-.3-.9-.2-.1-.5-.2-.9-.2s-.8,0-1,.2c-.2.1-.3.4-.3.9v6c0,.5,0,.8.3.9s.5.2,1,.2.7,0,.9-.2h0v-.1Z"/>
    <g>
      <path class="cls-2" d="M107.5.45l-13.8,14.4c-.6.7-.6,1.7,0,2.4l14.4,13.8c.7.6,1.7.6,2.4,0l13.8-14.4c.6-.7.6-1.7,0-2.4L109.9.45c-.7-.6-1.7-.6-2.4,0ZM121.9,14.45c.6.5.6,1.4,0,2l-11.6,12.1c-.5.6-1.4.6-2,0l-12.1-11.6c-.6-.5-.6-1.4,0-2l11.6-12.1c.5-.6,1.4-.6,2,0l12.1,11.6Z"/>
      <path class="cls-2" d="M107.2,4.95l-9,9.4c-.9.9-.8,2.4,0,3.3l9.4,9c.9.9,2.4.8,3.3,0l9-9.4c.9-.9.8-2.4,0-3.3l-9.4-9c-.9-.9-2.4-.8-3.3,0ZM113,12.45v6.7c0,.3-.3.6-.6.6h-6.7c-.3,0-.6-.3-.6-.6v-6.7c0-.3.3-.6.6-.6h6.7c.3,0,.6.3.6.6Z"/>
    </g>
  </g>
  <g>
    <path class="cls-1" d="M0,5.65h11.5c4.5,0,6.8,2.1,6.8,6.4s-.3,3.2-1,4.1c-.6.9-1.6,1.5-3,1.9h0c.9.4,1.7.7,2.3,1.1.6.4,1,1,1.3,1.8s.5,1.9.5,3.3c0,2.3-.6,4-1.7,5.1-1.1,1.1-2.9,1.7-5.3,1.7H0S0,5.65,0,5.65ZM10.2,15.65c.2,0,.4-.3.5-.6s.1-.8.1-1.5,0-1.3-.1-1.5c0-.3-.3-.5-.5-.6h-2.7v4.4h2.7v-.2ZM10.2,25.35c.2,0,.4-.3.5-.6s.1-.8.1-1.6,0-1.3-.1-1.6c0-.3-.3-.5-.5-.6-.2,0-.7-.1-1.3-.1h-1.4v4.7h1.4c.6,0,1,0,1.3-.1h0v-.1ZM33.8,31.25c-1.1.1-2.2.2-3.2.2-2.9,0-5-.4-6.3-1.2-1.3-.8-2.2-2.1-2.7-3.8-.4-1.8-.6-4.4-.6-8s.2-6.2.6-8,1.3-3,2.7-3.8c1.4-.8,3.5-1.2,6.3-1.2s2.1,0,3.1.2c1.1,0,2,.3,2.6.5v5.4c-2.1-.2-3.5-.3-4.1-.3-1.3,0-2.2,0-2.6.4-.5.3-.8.9-.9,1.8-.1.9-.2,2.6-.2,5s0,4.2.2,5.1c.1.9.4,1.5.9,1.7.5.3,1.3.4,2.6.4s2.8,0,4.2-.3v5.4c-.7.2-1.6.3-2.7.4h.1v.1ZM39.6,30.05c-.7-.9-1.1-2.4-1.1-4.4s.2-2.6.5-3.4.9-1.4,1.6-1.8,1.9-.5,3.4-.5,2.2,0,3.6.1v-.7c0-.7,0-1.3-.2-1.5s-.4-.5-.9-.5h-2.4c-1.2,0-3,0-4.8.2v-4.8c2.4-.4,4.7-.6,7-.6s4.3.3,5.5.8,2,1.4,2.3,2.4c.4,1.1.5,2.6.5,4.6v11.3h-6.8v-2.1h-.5c-.5.9-1.2,1.5-1.8,1.9-.7.3-1.5.5-2.4.5-1.6,0-2.8-.5-3.5-1.4h0v-.1ZM47.1,26.35c.2,0,.3-.3.4-.5v-2.6h-1.3c-.6,0-1,.1-1.2.3s-.2.7-.2,1.5,0,1,.2,1.2.5.3,1.1.3.6,0,.8-.1h.2v-.1ZM57.6,12.25h6.8v3.1h.5c.5-1.3,1.1-2.1,1.8-2.6s1.8-.7,3.1-.7v6.5c-1.3,0-2.3.1-3.1.4-.7.3-1.3.8-1.6,1.6-.4.8-.5,1.9-.5,3.5v7.3h-7V12.25h0ZM73.4,30.55c-.7-.6-1.3-1.5-1.6-2.9-.3-1.4-.5-3.4-.5-5.9s.2-4.5.5-5.9.9-2.4,1.6-3,1.8-.9,3-.9,1.8.2,2.5.5,1.2.9,1.7,1.7h.4V3.65h7v27.5h-6.8v-2.1h-.5c-.7,1.6-2.1,2.4-4.3,2.4s-2.3-.3-3-.8h0v-.1ZM80.5,25.55c.2-.1.3-.4.3-.8v-6c0-.5-.2-.8-.3-.9-.2-.1-.5-.2-.9-.2s-.8,0-1,.2c-.2.1-.3.4-.3.9v6c0,.5,0,.8.3.9s.5.2,1,.2.7,0,.9-.2h0v-.1Z"/>
    <g>
      <path class="cls-1" d="M106.7.45l-13.8,14.4c-.6.7-.6,1.7,0,2.4l14.4,13.8c.7.6,1.7.6,2.4,0l13.8-14.4c.6-.7.6-1.7,0-2.4L109,.45c-.7-.6-1.7-.6-2.4,0h.1ZM121,14.45c.6.5.6,1.4,0,2l-11.6,12.1c-.5.6-1.4.6-2,0l-12.1-11.6c-.6-.5-.6-1.4,0-2l11.6-12.1c.5-.6,1.4-.6,2,0l12.1,11.6Z"/>
      <path class="cls-1" d="M106.4,4.95l-9,9.4c-.9.9-.8,2.4,0,3.3l9.4,9c.9.9,2.4.8,3.3,0l9-9.4c.9-.9.8-2.4,0-3.3l-9.4-9c-.9-.9-2.4-.8-3.3,0ZM112.1,12.45v6.7c0,.3-.3.6-.6.6h-6.7c-.3,0-.6-.3-.6-.6v-6.7c0-.3.3-.6.6-.6h6.7c.3,0,.6.3.6.6Z"/>
    </g>
  </g>
</svg>