<?xml version="1.0" encoding="UTF-8"?>
<svg id="Layer_1" xmlns="http://www.w3.org/2000/svg" xmlns:xlink="http://www.w3.org/1999/xlink" version="1.1" viewBox="0 0 124.8 31.6">
  <!-- Generator: Adobe Illustrator 29.1.0, SVG Export Plug-In . SVG Version: 2.1.0 Build 142)  -->
  <defs>
    <style>
      .st0 {
        fill: #00ae80;
      }

      .st1 {
        fill: url(#radial-gradient);
      }

      .st2 {
        fill: #1a4438;
      }

      .st3 {
        fill: #2e5077;
      }

      .st4 {
        fill: #f6f4f0;
      }
    </style>
    <radialGradient id="radial-gradient" cx="721.5" cy="188.4" fx="721.5" fy="188.4" r="125.2" gradientTransform="translate(0 -66) scale(1 -1)" gradientUnits="userSpaceOnUse">
      <stop offset="0" stop-color="#f6f4f0"/>
      <stop offset="1" stop-color="#2e5077"/>
    </radialGradient>
  </defs>
  <path class="st3" d="M21-219h15.8c6.2,0,9.3,2.9,9.3,8.7s-.4,4.4-1.3,5.6c-.9,1.2-2.2,2.1-4.1,2.6v.2c1.3.3,2.3.8,3.1,1.3s1.4,1.4,1.8,2.5.7,2.6.7,4.5c0,3.1-.8,5.5-2.3,7s-4,2.3-7.2,2.3h-15.7v-34.7h0ZM34.9-205.4c.3-.1.6-.4.7-.8s.2-1.1.2-2,0-1.7-.2-2.1c0-.4-.4-.6-.7-.8-.3-.1-.9-.2-1.8-.2h-2v6h2c.8,0,1.4,0,1.8-.2h0ZM34.9-192.1c.3-.1.6-.4.7-.8s.2-1.1.2-2.2,0-1.7-.2-2.1c0-.4-.4-.7-.7-.8s-.9-.2-1.8-.2h-2v6.4h2c.8,0,1.4,0,1.8-.2h0ZM67-184.1c-1.5.2-3,.2-4.3.2-3.9,0-6.8-.5-8.6-1.6-1.8-1.1-3-2.8-3.6-5.2s-.9-6.1-.9-10.9.3-8.5.9-10.9c.6-2.4,1.8-4.2,3.7-5.2,1.8-1.1,4.7-1.6,8.6-1.6s2.8,0,4.3.2,2.7.4,3.6.7v7.4c-2.9-.2-4.8-.4-5.5-.4-1.8,0-3,.2-3.6.6-.6.4-1,1.2-1.2,2.4s-.2,3.5-.2,6.9,0,5.7.2,6.9.5,2,1.2,2.4c.6.4,1.8.6,3.6.6s3.8-.1,5.7-.4v7.4c-.9.2-2.2.4-3.7.6h-.2ZM75-185.7c-1-1.3-1.5-3.3-1.5-6s.2-3.6.6-4.7c.4-1.1,1.2-1.9,2.2-2.4s2.6-.7,4.7-.7,3,0,5,.2v-1c0-1,0-1.7-.3-2.1s-.6-.6-1.2-.7-1.7-.1-3.3-.1-4.1.1-6.6.3v-6.6c3.3-.5,6.5-.8,9.5-.8s5.9.4,7.5,1.1,2.7,1.9,3.2,3.3c.5,1.5.7,3.6.7,6.3v15.4h-9.3l-.2-2.8h-.5c-.7,1.2-1.6,2.1-2.5,2.5-.9.5-2,.7-3.3.7-2.2,0-3.8-.6-4.8-1.9h.1ZM85.2-190.8c.2-.1.4-.4.6-.7,0-.3.2-1,.2-2.2v-1.4h-1.7c-.8,0-1.4.1-1.6.4s-.3,1-.3,2,0,1.4.3,1.6.7.4,1.5.4.8,0,1.1-.2h0ZM99.5-210h9.3l.2,4.2h.5c.6-1.7,1.5-2.9,2.5-3.6s2.4-1,4.2-1v8.8c-1.8,0-3.2.2-4.2.6-1,.4-1.7,1.1-2.2,2.1-.5,1.1-.7,2.6-.7,4.7v9.9h-9.6v-25.7h0ZM121-185c-1-.8-1.7-2.1-2.2-4s-.7-4.6-.7-8.1.2-6.1.7-8,1.2-3.3,2.2-4.1,2.4-1.2,4.1-1.2,2.4.2,3.4.7,1.7,1.2,2.3,2.3h.5v-14.3h9.6v37.5h-9.3l-.2-2.9h-.5c-1,2.2-2.9,3.3-5.9,3.3s-3.1-.4-4.1-1.1h0ZM130.8-191.8c.2-.1.4-.5.4-1.1s.2-2.1.2-4.2v-4c0-.7-.2-1.1-.4-1.3s-.7-.3-1.3-.3-1.1,0-1.3.2-.3.6-.4,1.2,0,2,0,4.1v4.1c0,.7.2,1.1.4,1.2s.7.2,1.3.2,1,0,1.2-.2h0Z"/>
  <path class="st3" d="M208.8-247.4h40c15.7,0,23.6,7.4,23.6,22.1s-1.1,11.1-3.3,14.2c-2.2,3.2-5.7,5.3-10.4,6.5v.5c3.2.9,5.9,2,7.9,3.4s3.6,3.5,4.7,6.3,1.7,6.6,1.7,11.4c0,7.9-2,13.9-5.9,17.7-3.9,3.9-10,5.8-18.3,5.8h-39.8v-88.1l-.2.2ZM244.1-213c.9-.3,1.4-.9,1.7-1.9s.5-2.7.5-5.2-.2-4.3-.5-5.3-.9-1.6-1.7-1.9c-.9-.3-2.4-.5-4.5-.5h-5v15.2h5c2.1,0,3.6-.2,4.5-.5h0ZM244.1-179.3c.9-.3,1.4-1,1.7-2.1s.5-2.9.5-5.6-.2-4.4-.5-5.5-.9-1.8-1.7-2.1c-.9-.3-2.4-.5-4.5-.5h-5v16.1h5c2.1,0,3.6-.2,4.5-.5h0v.2ZM325.5-158.9c-3.8.4-7.5.6-11,.6-9.9,0-17.2-1.4-21.8-4.1-4.6-2.7-7.7-7.2-9.2-13.2-1.5-6.1-2.2-15.3-2.2-27.7s.7-21.6,2.2-27.7c1.5-6.1,4.6-10.5,9.3-13.2,4.7-2.7,11.9-4.1,21.8-4.1s7.1.2,10.8.6c3.7.4,6.8,1,9.2,1.7v18.7c-7.4-.6-12.1-.9-14.1-.9-4.4,0-7.5.5-9.1,1.5s-2.6,3-3,6.1-.6,8.9-.6,17.4.2,14.5.6,17.5,1.4,5,3,6,4.6,1.5,9.1,1.5,9.7-.3,14.5-.9v18.8c-2.4.6-5.5,1.1-9.3,1.5h-.2ZM345.6-163.1c-2.6-3.2-3.8-8.3-3.8-15.2s.5-9.1,1.6-11.9c1.1-2.8,3-4.8,5.7-6.1s6.7-1.9,11.9-1.9,7.6.2,12.6.5v-2.4c0-2.6-.2-4.3-.7-5.3s-1.4-1.6-2.9-1.9-4.2-.4-8.3-.4-10.3.3-16.6.8v-16.6c8.4-1.4,16.4-2.1,24.1-2.1s14.9,1,18.9,2.9,6.8,4.7,8,8.4,1.9,9,1.9,15.9v39.1h-23.7l-.5-7.2h-1.2c-1.9,3.2-4,5.3-6.3,6.5-2.4,1.1-5.1,1.7-8.4,1.7-5.6,0-9.6-1.6-12.2-4.9h-.1ZM371.7-175.9c.6-.3,1.1-.9,1.5-1.7.3-.8.4-2.6.4-5.6v-3.4h-4.4c-2.1,0-3.5.4-4,1.1s-.8,2.4-.8,5,.3,3.4.8,4.1,1.8,1,3.8,1,2.1-.2,2.7-.5h0ZM407.9-224.6h23.6l.5,10.6h1.3c1.6-4.4,3.7-7.4,6.3-9.1s6.1-2.6,10.8-2.6v22.4c-4.5,0-8,.5-10.6,1.4-2.5.9-4.4,2.7-5.6,5.5-1.2,2.7-1.9,6.7-1.9,12v25.1h-24.3v-65.3h0ZM462.5-161.1c-2.5-1.9-4.4-5.3-5.6-10.1-1.2-4.8-1.8-11.7-1.8-20.5s.6-15.5,1.8-20.4c1.2-4.9,3.1-8.3,5.6-10.3,2.6-2,6.1-3,10.5-3s6.2.6,8.5,1.7,4.3,3,5.8,5.8h1.3v-36.4h24.3v95.1h-23.6l-.5-7.3h-1.3c-2.5,5.6-7.4,8.3-14.9,8.3s-7.8-1-10.3-2.9h.2ZM487.2-178.4c.6-.4.9-1.3,1.1-2.8.3-1.9.4-5.5.4-10.8s0-8.7-.3-10.1c-.2-1.7-.6-2.8-1.1-3.3-.6-.5-1.7-.7-3.2-.7s-2.8.2-3.4.6c-.6.4-.9,1.5-1,3.1s-.2,5.1-.2,10.3,0,8.6.2,10.3.5,2.7,1,3.1,1.7.6,3.4.6,2.6-.2,3.1-.6h0v.3Z"/>
  <rect class="st0" x="703.1" y="-468.6" width="106.7" height="106.7"/>
  <g>
    <path class="st3" d="M355.5-337.7l-47.7,50c-2.2,2.3-2.1,6,.2,8.2l50,47.7c2.3,2.2,6,2.1,8.2-.2l47.7-50c2.2-2.3,2.1-6-.2-8.2l-50-47.7c-2.3-2.2-6-2.1-8.2.2ZM405.3-289.3c1.9,1.9,2,4.9.2,6.9l-40.1,42c-1.9,1.9-4.9,2-6.9.2l-42-40.1c-1.9-1.9-2-4.9-.2-6.9l40.1-42c1.9-1.9,4.9-2,6.9-.2l42,40.1h0Z"/>
    <path class="st3" d="M354.3-322.3l-31.1,32.6c-3,3.2-2.9,8.2.3,11.3l32.6,31.1c3.2,3,8.2,2.9,11.3-.3l31.1-32.6c3-3.2,2.9-8.2-.3-11.3l-32.6-31.1c-3.2-3-8.2-2.9-11.3.3ZM374.5-296.2l-.3,23.1c0,1.1-.9,1.9-2,1.9l-23.1-.3c-1.1,0-1.9-.9-1.9-2l.3-23.1c0-1.1.9-1.9,2-1.9l23.1.3c1.1,0,1.9.9,1.9,2Z"/>
  </g>
  <g>
    <path class="st4" d="M208.8,12.9h40c15.7,0,23.6,7.4,23.6,22.1s-1.1,11.1-3.3,14.2c-2.2,3.2-5.7,5.3-10.4,6.5v.5c3.2.9,5.9,2,7.9,3.4s3.6,3.5,4.7,6.3,1.7,6.6,1.7,11.4c0,7.9-2,13.9-5.9,17.7-3.9,3.9-10,5.8-18.3,5.8h-39.8V12.9h-.2ZM244.1,47.3c.9-.3,1.4-.9,1.7-1.9s.5-2.7.5-5.2-.2-4.3-.5-5.3-.9-1.6-1.7-1.9c-.9-.3-2.4-.5-4.5-.5h-5v15.2h5c2.1,0,3.6-.2,4.5-.5h0ZM244.1,80.9c.9-.3,1.4-1,1.7-2.1s.5-2.9.5-5.6-.2-4.4-.5-5.5-.9-1.8-1.7-2.1c-.9-.3-2.4-.5-4.5-.5h-5v16.1h5c2.1,0,3.6-.2,4.5-.5h0v.2ZM325.5,101.4c-3.8.4-7.5.6-11,.6-9.9,0-17.2-1.4-21.8-4.1-4.6-2.7-7.7-7.2-9.2-13.2-1.5-6.1-2.2-15.3-2.2-27.7s.7-21.6,2.2-27.7,4.6-10.5,9.3-13.2c4.7-2.7,11.9-4.1,21.8-4.1s7.1.2,10.8.6c3.7.4,6.8,1,9.2,1.7v18.7c-7.4-.6-12.1-.9-14.1-.9-4.4,0-7.5.5-9.1,1.5s-2.6,3-3,6.1-.6,8.9-.6,17.4.2,14.5.6,17.5,1.4,5,3,6,4.6,1.5,9.1,1.5,9.7-.3,14.5-.9v18.8c-2.4.6-5.5,1.1-9.3,1.5h-.2ZM345.6,97.1c-2.6-3.2-3.8-8.3-3.8-15.2s.5-9.1,1.6-11.9,3-4.8,5.7-6.1,6.7-1.9,11.9-1.9,7.6.2,12.6.5v-2.4c0-2.6-.2-4.3-.7-5.3s-1.4-1.6-2.9-1.9-4.2-.4-8.3-.4-10.3.3-16.6.8v-16.6c8.4-1.4,16.4-2.1,24.1-2.1s14.9,1,18.9,2.9,6.8,4.7,8,8.4c1.2,3.7,1.9,9,1.9,15.9v39.1h-23.7l-.5-7.2h-1.2c-1.9,3.2-4,5.3-6.3,6.5-2.4,1.1-5.1,1.7-8.4,1.7-5.6,0-9.6-1.6-12.2-4.9h-.1ZM371.7,84.3c.6-.3,1.1-.9,1.5-1.7.3-.8.4-2.6.4-5.6v-3.4h-4.4c-2.1,0-3.5.4-4,1.1s-.8,2.4-.8,5,.3,3.4.8,4.1,1.8,1,3.8,1,2.1-.2,2.7-.5h0ZM407.9,35.7h23.6l.5,10.6h1.3c1.6-4.4,3.7-7.4,6.3-9.1s6.1-2.6,10.8-2.6v22.4c-4.5,0-8,.5-10.6,1.4-2.5.9-4.4,2.7-5.6,5.5-1.2,2.7-1.9,6.7-1.9,12v25.1h-24.3V35.7h0ZM462.5,99.1c-2.5-1.9-4.4-5.3-5.6-10.1s-1.8-11.7-1.8-20.5.6-15.5,1.8-20.4c1.2-4.9,3.1-8.3,5.6-10.3,2.6-2,6.1-3,10.5-3s6.2.6,8.5,1.7,4.3,3,5.8,5.8h1.3V5.9h24.3v95.1h-23.6l-.5-7.3h-1.3c-2.5,5.6-7.4,8.3-14.9,8.3s-7.8-1-10.3-2.9h.2ZM487.2,81.8c.6-.4.9-1.3,1.1-2.8.3-1.9.4-5.5.4-10.8s0-8.7-.3-10.1c-.2-1.7-.6-2.8-1.1-3.3-.6-.5-1.7-.7-3.2-.7s-2.8.2-3.4.6-.9,1.5-1,3.1-.2,5.1-.2,10.3,0,8.6.2,10.3.5,2.7,1,3.1,1.7.6,3.4.6,2.6-.2,3.1-.6h0v.3Z"/>
    <g>
      <path class="st4" d="M355.5-77.4l-47.7,50c-2.2,2.3-2.1,6,.2,8.2l50,47.7c2.3,2.2,6,2.1,8.2-.2l47.7-50c2.2-2.3,2.1-6-.2-8.2l-50-47.7c-2.3-2.2-6-2.1-8.2.2ZM405.3-29.1c1.9,1.9,2,4.9.2,6.9l-40.1,42c-1.9,1.9-4.9,2-6.9.2l-42-40.1c-1.9-1.9-2-4.9-.2-6.9l40.1-42c1.9-1.9,4.9-2,6.9-.2,0,0,42,40.1,42,40.1Z"/>
      <path class="st4" d="M354.3-62l-31.1,32.6c-3,3.2-2.9,8.2.3,11.3l32.6,31.1c3.2,3,8.2,2.9,11.3-.3l31.1-32.6c3-3.2,2.9-8.2-.3-11.3l-32.6-31.1c-3.2-3-8.2-2.9-11.3.3ZM374.5-36l-.3,23.1c0,1.1-.9,1.9-2,1.9l-23.1-.3c-1.1,0-1.9-.9-1.9-2l.3-23.1c0-1.1.9-1.9,2-1.9l23.1.3c1.1,0,1.9.9,1.9,2Z"/>
    </g>
  </g>
  <g>
    <path class="st3" d="M205.8,12.9h40c15.7,0,23.6,7.4,23.6,22.1s-1.1,11.1-3.3,14.2c-2.2,3.2-5.7,5.3-10.4,6.5v.5c3.2.9,5.9,2,7.9,3.4s3.6,3.5,4.7,6.3,1.7,6.6,1.7,11.4c0,7.9-2,13.9-5.9,17.7-3.9,3.9-10,5.8-18.3,5.8h-39.8V12.9h-.2ZM241.1,47.3c.9-.3,1.4-.9,1.7-1.9s.5-2.7.5-5.2-.2-4.3-.5-5.3-.9-1.6-1.7-1.9c-.9-.3-2.4-.5-4.5-.5h-5v15.2h5c2.1,0,3.6-.2,4.5-.5h0ZM241.1,80.9c.9-.3,1.4-1,1.7-2.1s.5-2.9.5-5.6-.2-4.4-.5-5.5-.9-1.8-1.7-2.1c-.9-.3-2.4-.5-4.5-.5h-5v16.1h5c2.1,0,3.6-.2,4.5-.5h0v.2ZM322.6,101.4c-3.8.4-7.5.6-11,.6-9.9,0-17.2-1.4-21.8-4.1-4.6-2.7-7.7-7.2-9.2-13.2-1.5-6.1-2.2-15.3-2.2-27.7s.7-21.6,2.2-27.7,4.6-10.5,9.3-13.2c4.7-2.7,11.9-4.1,21.8-4.1s7.1.2,10.8.6c3.7.4,6.8,1,9.2,1.7v18.7c-7.4-.6-12.1-.9-14.1-.9-4.4,0-7.5.5-9.1,1.5s-2.6,3-3,6.1-.6,8.9-.6,17.4.2,14.5.6,17.5,1.4,5,3,6,4.6,1.5,9.1,1.5,9.7-.3,14.5-.9v18.8c-2.4.6-5.5,1.1-9.3,1.5h-.2ZM342.7,97.1c-2.6-3.2-3.8-8.3-3.8-15.2s.5-9.1,1.6-11.9,3-4.8,5.7-6.1,6.7-1.9,11.9-1.9,7.6.2,12.6.5v-2.4c0-2.6-.2-4.3-.7-5.3s-1.4-1.6-2.9-1.9-4.2-.4-8.3-.4-10.3.3-16.6.8v-16.6c8.4-1.4,16.4-2.1,24.1-2.1s14.9,1,18.9,2.9,6.8,4.7,8,8.4c1.2,3.7,1.9,9,1.9,15.9v39.1h-23.7l-.5-7.2h-1.2c-1.9,3.2-4,5.3-6.3,6.5-2.4,1.1-5.1,1.7-8.4,1.7-5.6,0-9.6-1.6-12.2-4.9h-.1ZM368.7,84.3c.6-.3,1.1-.9,1.5-1.7.3-.8.4-2.6.4-5.6v-3.4h-4.4c-2.1,0-3.5.4-4,1.1s-.8,2.4-.8,5,.3,3.4.8,4.1,1.8,1,3.8,1,2.1-.2,2.7-.5h0ZM404.9,35.7h23.6l.5,10.6h1.3c1.6-4.4,3.7-7.4,6.3-9.1s6.1-2.6,10.8-2.6v22.4c-4.5,0-8,.5-10.6,1.4-2.5.9-4.4,2.7-5.6,5.5-1.2,2.7-1.9,6.7-1.9,12v25.1h-24.3V35.7h0ZM459.5,99.1c-2.5-1.9-4.4-5.3-5.6-10.1s-1.8-11.7-1.8-20.5.6-15.5,1.8-20.4c1.2-4.9,3.1-8.3,5.6-10.3,2.6-2,6.1-3,10.5-3s6.2.6,8.5,1.7,4.3,3,5.8,5.8h1.3V5.9h24.3v95.1h-23.6l-.5-7.3h-1.3c-2.5,5.6-7.4,8.3-14.9,8.3s-7.8-1-10.3-2.9h.2ZM484.2,81.8c.6-.4.9-1.3,1.1-2.8.3-1.9.4-5.5.4-10.8s0-8.7-.3-10.1c-.2-1.7-.6-2.8-1.1-3.3-.6-.5-1.7-.7-3.2-.7s-2.8.2-3.4.6-.9,1.5-1,3.1-.2,5.1-.2,10.3,0,8.6.2,10.3.5,2.7,1,3.1,1.7.6,3.4.6,2.6-.2,3.1-.6h0v.3Z"/>
    <g>
      <path class="st3" d="M352.6-77.4l-47.7,50c-2.2,2.3-2.1,6,.2,8.2l50,47.7c2.3,2.2,6,2.1,8.2-.2l47.7-50c2.2-2.3,2.1-6-.2-8.2l-50-47.7c-2.3-2.2-6-2.1-8.2.2ZM402.3-29.1c1.9,1.9,2,4.9.2,6.9l-40.1,42c-1.9,1.9-4.9,2-6.9.2l-42-40.1c-1.9-1.9-2-4.9-.2-6.9l40.1-42c1.9-1.9,4.9-2,6.9-.2,0,0,42,40.1,42,40.1Z"/>
      <path class="st3" d="M351.4-62l-31.1,32.6c-3,3.2-2.9,8.2.3,11.3l32.6,31.1c3.2,3,8.2,2.9,11.3-.3l31.1-32.6c3-3.2,2.9-8.2-.3-11.3l-32.6-31.1c-3.2-3-8.2-2.9-11.3.3ZM371.5-36l-.3,23.1c0,1.1-.9,1.9-2,1.9l-23.1-.3c-1.1,0-1.9-.9-1.9-2l.3-23.1c0-1.1.9-1.9,2-1.9l23.1.3c1.1,0,1.9.9,1.9,2Z"/>
    </g>
  </g>
  <g>
    <g>
      <path class="st4" d="M29.9-141.6h11.5c4.5,0,6.8,2.1,6.8,6.4s-.3,3.2-1,4.1c-.6.9-1.6,1.5-3,1.9h0c.9.4,1.7.7,2.3,1.1s1,1,1.3,1.8.5,1.9.5,3.3c0,2.3-.6,4-1.7,5.1-1.1,1.1-2.9,1.7-5.3,1.7h-11.5v-25.5h.1ZM40.1-131.6c.2,0,.4-.3.5-.6s0-.8,0-1.5,0-1.3,0-1.5c0-.3-.3-.5-.5-.6-.2,0-.7,0-1.3,0h-1.4v4.4h1.4c.6,0,1,0,1.3-.1ZM40.1-121.9c.2,0,.4-.3.5-.6s0-.8,0-1.6,0-1.3,0-1.6c0-.3-.3-.5-.5-.6-.2,0-.7,0-1.3,0h-1.4v4.7h1.4c.6,0,1,0,1.3,0h0ZM63.7-116c-1.1,0-2.2.2-3.2.2-2.9,0-5-.4-6.3-1.2-1.3-.8-2.2-2.1-2.7-3.8-.4-1.8-.6-4.4-.6-8s.2-6.2.6-8c.4-1.8,1.3-3,2.7-3.8s3.5-1.2,6.3-1.2,2.1,0,3.1.2c1.1,0,2,.3,2.6.5v5.4c-2.1-.2-3.5-.3-4.1-.3-1.3,0-2.2,0-2.6.4-.5.3-.8.9-.9,1.8,0,.9-.2,2.6-.2,5s0,4.2.2,5.1c0,.9.4,1.5.9,1.7.5.3,1.3.4,2.6.4s2.8,0,4.2-.3v5.4c-.7.2-1.6.3-2.7.4h.1ZM69.5-117.2c-.7-.9-1.1-2.4-1.1-4.4s.2-2.6.5-3.4.9-1.4,1.6-1.8,1.9-.5,3.4-.5,2.2,0,3.6,0v-.7c0-.7,0-1.3-.2-1.5s-.4-.5-.9-.5-1.2,0-2.4,0-3,0-4.8.2v-4.8c2.4-.4,4.7-.6,7-.6s4.3.3,5.5.8,2,1.4,2.3,2.4c.4,1.1.5,2.6.5,4.6v11.3h-6.8v-2.1h-.5c-.5.9-1.2,1.5-1.8,1.9-.7.3-1.5.5-2.4.5-1.6,0-2.8-.5-3.5-1.4h0ZM77-120.9c.2,0,.3-.3.4-.5,0-.2,0-.8,0-1.6v-1h-1.3c-.6,0-1,0-1.2.3s-.2.7-.2,1.5,0,1,.2,1.2.5.3,1.1.3.6,0,.8,0h0ZM87.5-135h6.8v3.1h.5c.5-1.3,1.1-2.1,1.8-2.6s1.8-.7,3.1-.7v6.5c-1.3,0-2.3,0-3.1.4-.7.3-1.3.8-1.6,1.6-.4.8-.5,1.9-.5,3.5v7.3h-7v-18.9h0v-.2ZM103.2-116.6c-.7-.6-1.3-1.5-1.6-2.9-.3-1.4-.5-3.4-.5-5.9s.2-4.5.5-5.9.9-2.4,1.6-3,1.8-.9,3-.9,1.8.2,2.5.5,1.2.9,1.7,1.7h.4v-10.5h7v27.5h-6.8v-2.1h-.5c-.7,1.6-2.1,2.4-4.3,2.4s-2.3-.3-3-.8h0ZM110.4-121.6c.2,0,.3-.4.3-.8s0-1.6,0-3.1v-2.9c0-.5-.2-.8-.3-.9-.2,0-.5-.2-.9-.2s-.8,0-1,.2c-.2,0-.3.4-.3.9v6c0,.5,0,.8.3.9s.5.2,1,.2.7,0,.9-.2h0Z"/>
      <g>
        <path class="st4" d="M72.3-167.7l-13.8,14.4c-.6.7-.6,1.7,0,2.4l14.4,13.8c.7.6,1.7.6,2.4,0l13.8-14.4c.6-.7.6-1.7,0-2.4l-14.4-13.8c-.7-.6-1.7-.6-2.4,0ZM86.7-153.7c.6.5.6,1.4,0,2l-11.6,12.1c-.5.6-1.4.6-2,0l-12.1-11.6c-.6-.5-.6-1.4,0-2l11.6-12.1c.5-.6,1.4-.6,2,0l12.1,11.6Z"/>
        <path class="st4" d="M72-163.2l-9,9.4c-.9.9-.8,2.4,0,3.3l9.4,9c.9.9,2.4.8,3.3,0l9-9.4c.9-.9.8-2.4,0-3.3l-9.4-9c-.9-.9-2.4-.8-3.3,0ZM77.8-155.7v6.7c0,.3-.3.6-.6.6h-6.7c-.3,0-.6-.3-.6-.6v-6.7c0-.3.3-.6.6-.6h6.7c.3,0,.6.3.6.6Z"/>
      </g>
    </g>
    <g>
      <path class="st3" d="M29-141.6h11.5c4.5,0,6.8,2.1,6.8,6.4s-.3,3.2-1,4.1c-.6.9-1.6,1.5-3,1.9h0c.9.4,1.7.7,2.3,1.1s1,1,1.3,1.8.5,1.9.5,3.3c0,2.3-.6,4-1.7,5.1-1.1,1.1-2.9,1.7-5.3,1.7h-11.5v-25.5h.1ZM39.3-131.6c.2,0,.4-.3.5-.6s0-.8,0-1.5,0-1.3,0-1.5c0-.3-.3-.5-.5-.6-.2,0-.7,0-1.3,0h-1.4v4.4h1.4c.6,0,1,0,1.3-.1ZM39.3-121.9c.2,0,.4-.3.5-.6s0-.8,0-1.6,0-1.3,0-1.6c0-.3-.3-.5-.5-.6-.2,0-.7,0-1.3,0h-1.4v4.7h1.4c.6,0,1,0,1.3,0h0ZM62.8-116c-1.1,0-2.2.2-3.2.2-2.9,0-5-.4-6.3-1.2-1.3-.8-2.2-2.1-2.7-3.8-.4-1.8-.6-4.4-.6-8s.2-6.2.6-8c.4-1.8,1.3-3,2.7-3.8s3.5-1.2,6.3-1.2,2.1,0,3.1.2c1.1,0,2,.3,2.6.5v5.4c-2.1-.2-3.5-.3-4.1-.3-1.3,0-2.2,0-2.6.4-.5.3-.8.9-.9,1.8,0,.9-.2,2.6-.2,5s0,4.2.2,5.1c0,.9.4,1.5.9,1.7.5.3,1.3.4,2.6.4s2.8,0,4.2-.3v5.4c-.7.2-1.6.3-2.7.4h.1ZM68.6-117.2c-.7-.9-1.1-2.4-1.1-4.4s.2-2.6.5-3.4.9-1.4,1.6-1.8,1.9-.5,3.4-.5,2.2,0,3.6,0v-.7c0-.7,0-1.3-.2-1.5s-.4-.5-.9-.5-1.2,0-2.4,0-3,0-4.8.2v-4.8c2.4-.4,4.7-.6,7-.6s4.3.3,5.5.8,2,1.4,2.3,2.4c.4,1.1.5,2.6.5,4.6v11.3h-6.8v-2.1h-.5c-.5.9-1.2,1.5-1.8,1.9-.7.3-1.5.5-2.4.5-1.6,0-2.8-.5-3.5-1.4h0ZM76.1-120.9c.2,0,.3-.3.4-.5,0-.2,0-.8,0-1.6v-1h-1.3c-.6,0-1,0-1.2.3s-.2.7-.2,1.5,0,1,.2,1.2.5.3,1.1.3.6,0,.8,0h0ZM86.6-135h6.8v3.1h.5c.5-1.3,1.1-2.1,1.8-2.6s1.8-.7,3.1-.7v6.5c-1.3,0-2.3,0-3.1.4-.7.3-1.3.8-1.6,1.6-.4.8-.5,1.9-.5,3.5v7.3h-7v-18.9h0v-.2ZM102.4-116.6c-.7-.6-1.3-1.5-1.6-2.9-.3-1.4-.5-3.4-.5-5.9s.2-4.5.5-5.9.9-2.4,1.6-3,1.8-.9,3-.9,1.8.2,2.5.5,1.2.9,1.7,1.7h.4v-10.5h7v27.5h-6.8v-2.1h-.5c-.7,1.6-2.1,2.4-4.3,2.4s-2.3-.3-3-.8h0ZM109.5-121.6c.2,0,.3-.4.3-.8s0-1.6,0-3.1v-2.9c0-.5-.2-.8-.3-.9-.2,0-.5-.2-.9-.2s-.8,0-1,.2c-.2,0-.3.4-.3.9v6c0,.5,0,.8.3.9s.5.2,1,.2.7,0,.9-.2h0Z"/>
      <g>
        <path class="st3" d="M71.5-167.7l-13.8,14.4c-.6.7-.6,1.7,0,2.4l14.4,13.8c.7.6,1.7.6,2.4,0l13.8-14.4c.6-.7.6-1.7,0-2.4l-14.4-13.8c-.7-.6-1.7-.6-2.4,0ZM85.8-153.7c.6.5.6,1.4,0,2l-11.6,12.1c-.5.6-1.4.6-2,0l-12.1-11.6c-.6-.5-.6-1.4,0-2l11.6-12.1c.5-.6,1.4-.6,2,0l12.1,11.6Z"/>
        <path class="st3" d="M71.1-163.2l-9,9.4c-.9.9-.8,2.4,0,3.3l9.4,9c.9.9,2.4.8,3.3,0l9-9.4c.9-.9.8-2.4,0-3.3l-9.4-9c-.9-.9-2.4-.8-3.3,0ZM76.9-155.7v6.7c0,.3-.3.6-.6.6h-6.7c-.3,0-.6-.3-.6-.6v-6.7c0-.3.3-.6.6-.6h6.7c.3,0,.6.3.6.6Z"/>
      </g>
    </g>
  </g>
  <g>
    <g>
      <path class="st3" d="M.9,5.7h11.5c4.5,0,6.8,2.1,6.8,6.4s-.3,3.2-1,4.1c-.6.9-1.6,1.5-3,1.9h0c.9.4,1.7.7,2.3,1.1s1,1,1.3,1.8.5,1.9.5,3.3c0,2.3-.6,4-1.7,5.1s-2.9,1.7-5.3,1.7H.9V5.7ZM11.1,15.7c.2,0,.4-.3.5-.6s.1-.8.1-1.5,0-1.3-.1-1.5c0-.3-.3-.5-.5-.6-.2,0-.7-.1-1.3-.1h-1.4v4.4h1.4c.6,0,1,0,1.3,0ZM11.1,25.4c.2,0,.4-.3.5-.6s.1-.8.1-1.6,0-1.3-.1-1.6c0-.3-.3-.5-.5-.6-.2,0-.7-.1-1.3-.1h-1.4v4.7h1.4c.6,0,1,0,1.3-.1h0ZM34.6,31.3c-1.1.1-2.2.2-3.2.2-2.9,0-5-.4-6.3-1.2-1.3-.8-2.2-2.1-2.7-3.8-.4-1.8-.6-4.4-.6-8s.2-6.2.6-8,1.3-3,2.7-3.8c1.4-.8,3.5-1.2,6.3-1.2s2.1,0,3.1.2c1.1,0,2,.3,2.6.5v5.4c-2.1-.2-3.5-.3-4.1-.3-1.3,0-2.2.1-2.6.4-.5.3-.8.9-.9,1.8-.1.9-.2,2.6-.2,5s0,4.2.2,5.1c.1.9.4,1.5.9,1.7.5.3,1.3.4,2.6.4s2.8,0,4.2-.3v5.4c-.7.2-1.6.3-2.7.4h.1ZM40.4,30.1c-.7-.9-1.1-2.4-1.1-4.4s.2-2.6.5-3.4.9-1.4,1.6-1.8,1.9-.5,3.4-.5,2.2,0,3.6.1v-.7c0-.7,0-1.3-.2-1.5s-.4-.5-.9-.5-1.2-.1-2.4-.1-3,0-4.8.2v-4.8c2.4-.4,4.7-.6,7-.6s4.3.3,5.5.8,2,1.4,2.3,2.4c.4,1.1.5,2.6.5,4.6v11.3h-6.8v-2.1h-.5c-.5.9-1.2,1.5-1.8,1.9-.7.3-1.5.5-2.4.5-1.6,0-2.8-.5-3.5-1.4h0ZM48,26.4c.2,0,.3-.3.4-.5,0-.2,0-.8,0-1.6v-1h-1.3c-.6,0-1,.1-1.2.3s-.2.7-.2,1.5,0,1,.2,1.2.5.3,1.1.3.6,0,.8-.1h.1ZM58.4,12.3h6.8v3.1h.5c.5-1.3,1.1-2.1,1.8-2.6s1.8-.7,3.1-.7v6.5c-1.3,0-2.3.1-3.1.4-.7.3-1.3.8-1.6,1.6-.4.8-.5,1.9-.5,3.5v7.3h-7V12.3h0ZM74.2,30.6c-.7-.6-1.3-1.5-1.6-2.9-.3-1.4-.5-3.4-.5-5.9s.2-4.5.5-5.9.9-2.4,1.6-3,1.8-.9,3-.9,1.8.2,2.5.5,1.2.9,1.7,1.7h.4V3.7h7v27.5h-6.8v-2.1h-.5c-.7,1.6-2.1,2.4-4.3,2.4s-2.3-.3-3-.8h0ZM81.3,25.6c.2-.1.3-.4.3-.8s0-1.6,0-3.1v-2.9c0-.5-.2-.8-.3-.9-.2-.1-.5-.2-.9-.2s-.8,0-1,.2c-.2.1-.3.4-.3.9v6c0,.5,0,.8.3.9s.5.2,1,.2.7,0,.9-.2h0Z"/>
      <g>
        <path class="st3" d="M107.5.5l-13.8,14.4c-.6.7-.6,1.7,0,2.4l14.4,13.8c.7.6,1.7.6,2.4,0l13.8-14.4c.6-.7.6-1.7,0-2.4L109.9.5c-.7-.6-1.7-.6-2.4,0ZM121.9,14.5c.6.5.6,1.4,0,2l-11.6,12.1c-.5.6-1.4.6-2,0l-12.1-11.6c-.6-.5-.6-1.4,0-2l11.6-12.1c.5-.6,1.4-.6,2,0l12.1,11.6Z"/>
        <path class="st3" d="M107.2,5l-9,9.4c-.9.9-.8,2.4,0,3.3l9.4,9c.9.9,2.4.8,3.3,0l9-9.4c.9-.9.8-2.4,0-3.3l-9.4-9c-.9-.9-2.4-.8-3.3,0ZM113,12.5v6.7c0,.3-.3.6-.6.6h-6.7c-.3,0-.6-.3-.6-.6v-6.7c0-.3.3-.6.6-.6h6.7c.3,0,.6.3.6.6Z"/>
      </g>
    </g>
    <g>
      <path class="st4" d="M0,5.7h11.5c4.5,0,6.8,2.1,6.8,6.4s-.3,3.2-1,4.1c-.6.9-1.6,1.5-3,1.9h0c.9.4,1.7.7,2.3,1.1.6.4,1,1,1.3,1.8s.5,1.9.5,3.3c0,2.3-.6,4-1.7,5.1s-2.9,1.7-5.3,1.7H0V5.7ZM10.2,15.7c.2,0,.4-.3.5-.6s.1-.8.1-1.5,0-1.3-.1-1.5c0-.3-.3-.5-.5-.6-.2,0-.7-.1-1.3-.1h-1.4v4.4h1.4c.6,0,1,0,1.3,0ZM10.2,25.4c.2,0,.4-.3.5-.6s.1-.8.1-1.6,0-1.3-.1-1.6c0-.3-.3-.5-.5-.6-.2,0-.7-.1-1.3-.1h-1.4v4.7h1.4c.6,0,1,0,1.3-.1h0ZM33.8,31.3c-1.1.1-2.2.2-3.2.2-2.9,0-5-.4-6.3-1.2-1.3-.8-2.2-2.1-2.7-3.8-.4-1.8-.6-4.4-.6-8s.2-6.2.6-8,1.3-3,2.7-3.8c1.4-.8,3.5-1.2,6.3-1.2s2.1,0,3.1.2c1.1,0,2,.3,2.6.5v5.4c-2.1-.2-3.5-.3-4.1-.3-1.3,0-2.2.1-2.6.4-.5.3-.8.9-.9,1.8-.1.9-.2,2.6-.2,5s0,4.2.2,5.1c.1.9.4,1.5.9,1.7.5.3,1.3.4,2.6.4s2.8,0,4.2-.3v5.4c-.7.2-1.6.3-2.7.4h.1ZM39.6,30.1c-.7-.9-1.1-2.4-1.1-4.4s.2-2.6.5-3.4.9-1.4,1.6-1.8,1.9-.5,3.4-.5,2.2,0,3.6.1v-.7c0-.7,0-1.3-.2-1.5s-.4-.5-.9-.5-1.2-.1-2.4-.1-3,0-4.8.2v-4.8c2.4-.4,4.7-.6,7-.6s4.3.3,5.5.8,2,1.4,2.3,2.4c.4,1.1.5,2.6.5,4.6v11.3h-6.8v-2.1h-.5c-.5.9-1.2,1.5-1.8,1.9-.7.3-1.5.5-2.4.5-1.6,0-2.8-.5-3.5-1.4h0ZM47.1,26.4c.2,0,.3-.3.4-.5,0-.2,0-.8,0-1.6v-1h-1.3c-.6,0-1,.1-1.2.3s-.2.7-.2,1.5,0,1,.2,1.2.5.3,1.1.3.6,0,.8-.1h.1ZM57.6,12.3h6.8v3.1h.5c.5-1.3,1.1-2.1,1.8-2.6s1.8-.7,3.1-.7v6.5c-1.3,0-2.3.1-3.1.4-.7.3-1.3.8-1.6,1.6-.4.8-.5,1.9-.5,3.5v7.3h-7V12.3h0ZM73.3,30.6c-.7-.6-1.3-1.5-1.6-2.9-.3-1.4-.5-3.4-.5-5.9s.2-4.5.5-5.9.9-2.4,1.6-3,1.8-.9,3-.9,1.8.2,2.5.5,1.2.9,1.7,1.7h.4V3.7h7v27.5h-6.8v-2.1h-.5c-.7,1.6-2.1,2.4-4.3,2.4s-2.3-.3-3-.8h0ZM80.5,25.6c.2-.1.3-.4.3-.8s0-1.6,0-3.1v-2.9c0-.5-.2-.8-.3-.9-.2-.1-.5-.2-.9-.2s-.8,0-1,.2c-.2.1-.3.4-.3.9v6c0,.5,0,.8.3.9s.5.2,1,.2.7,0,.9-.2h0Z"/>
      <g>
        <path class="st4" d="M106.7.5l-13.8,14.4c-.6.7-.6,1.7,0,2.4l14.4,13.8c.7.6,1.7.6,2.4,0l13.8-14.4c.6-.7.6-1.7,0-2.4L109,.5c-.7-.6-1.7-.6-2.4,0h0ZM121,14.5c.6.5.6,1.4,0,2l-11.6,12.1c-.5.6-1.4.6-2,0l-12.1-11.6c-.6-.5-.6-1.4,0-2l11.6-12.1c.5-.6,1.4-.6,2,0l12.1,11.6Z"/>
        <path class="st4" d="M106.3,5l-9,9.4c-.9.9-.8,2.4,0,3.3l9.4,9c.9.9,2.4.8,3.3,0l9-9.4c.9-.9.8-2.4,0-3.3l-9.4-9c-.9-.9-2.4-.8-3.3,0ZM112.1,12.5v6.7c0,.3-.3.6-.6.6h-6.7c-.3,0-.6-.3-.6-.6v-6.7c0-.3.3-.6.6-.6h6.7c.3,0,.6.3.6.6Z"/>
      </g>
    </g>
  </g>
  <g>
    <g>
      <path class="st4" d="M.9-43.9h11.5c4.5,0,6.8,2.1,6.8,6.4s-.3,3.2-1,4.1c-.6.9-1.6,1.5-3,1.9h0c.9.4,1.7.7,2.3,1.1s1,1,1.3,1.8.5,1.9.5,3.3c0,2.3-.6,4-1.7,5.1s-2.9,1.7-5.3,1.7H.9v-25.4ZM11.1-33.9c.2,0,.4-.3.5-.6s.1-.8.1-1.5,0-1.3-.1-1.5c0-.3-.3-.5-.5-.6-.2,0-.7-.1-1.3-.1h-1.4v4.4h1.4c.6,0,1,0,1.3,0ZM11.1-24.2c.2,0,.4-.3.5-.6s.1-.8.1-1.6,0-1.3-.1-1.6c0-.3-.3-.5-.5-.6-.2,0-.7-.1-1.3-.1h-1.4v4.7h1.4c.6,0,1,0,1.3-.1h0ZM34.6-18.3c-1.1.1-2.2.2-3.2.2-2.9,0-5-.4-6.3-1.2-1.3-.8-2.2-2.1-2.7-3.8-.4-1.8-.6-4.4-.6-8s.2-6.2.6-8,1.3-3,2.7-3.8c1.4-.8,3.5-1.2,6.3-1.2s2.1,0,3.1.2c1.1,0,2,.3,2.6.5v5.4c-2.1-.2-3.5-.3-4.1-.3-1.3,0-2.2.1-2.6.4-.5.3-.8.9-.9,1.8-.1.9-.2,2.6-.2,5s0,4.2.2,5.1c.1.9.4,1.5.9,1.7.5.3,1.3.4,2.6.4s2.8,0,4.2-.3v5.4c-.7.2-1.6.3-2.7.4h.1ZM40.4-19.5c-.7-.9-1.1-2.4-1.1-4.4s.2-2.6.5-3.4.9-1.4,1.6-1.8,1.9-.5,3.4-.5,2.2,0,3.6.1v-.7c0-.7,0-1.3-.2-1.5s-.4-.5-.9-.5-1.2-.1-2.4-.1-3,0-4.8.2v-4.8c2.4-.4,4.7-.6,7-.6s4.3.3,5.5.8,2,1.4,2.3,2.4c.4,1.1.5,2.6.5,4.6v11.3h-6.8v-2.1h-.5c-.5.9-1.2,1.5-1.8,1.9-.7.3-1.5.5-2.4.5-1.6,0-2.8-.5-3.5-1.4h0ZM48-23.2c.2,0,.3-.3.4-.5,0-.2,0-.8,0-1.6v-1h-1.3c-.6,0-1,.1-1.2.3s-.2.7-.2,1.5,0,1,.2,1.2.5.3,1.1.3.6,0,.8-.1h.1ZM58.4-37.3h6.8v3.1h.5c.5-1.3,1.1-2.1,1.8-2.6s1.8-.7,3.1-.7v6.5c-1.3,0-2.3.1-3.1.4-.7.3-1.3.8-1.6,1.6-.4.8-.5,1.9-.5,3.5v7.3h-7v-19.1h0ZM74.2-19c-.7-.6-1.3-1.5-1.6-2.9-.3-1.4-.5-3.4-.5-5.9s.2-4.5.5-5.9.9-2.4,1.6-3,1.8-.9,3-.9,1.8.2,2.5.5,1.2.9,1.7,1.7h.4v-10.5h7v27.5h-6.8v-2.1h-.5c-.7,1.6-2.1,2.4-4.3,2.4s-2.3-.3-3-.8h0ZM81.3-24c.2-.1.3-.4.3-.8s0-1.6,0-3.1v-2.9c0-.5-.2-.8-.3-.9-.2-.1-.5-.2-.9-.2s-.8,0-1,.2c-.2.1-.3.4-.3.9v6c0,.5,0,.8.3.9s.5.2,1,.2.7,0,.9-.2h0Z"/>
      <g>
        <path class="st4" d="M107.5-49.1l-13.8,14.4c-.6.7-.6,1.7,0,2.4l14.4,13.8c.7.6,1.7.6,2.4,0l13.8-14.4c.6-.7.6-1.7,0-2.4l-14.4-13.8c-.7-.6-1.7-.6-2.4,0ZM121.9-35.1c.6.5.6,1.4,0,2l-11.6,12.1c-.5.6-1.4.6-2,0l-12.1-11.6c-.6-.5-.6-1.4,0-2l11.6-12.1c.5-.6,1.4-.6,2,0l12.1,11.6Z"/>
        <path class="st4" d="M107.2-44.6l-9,9.4c-.9.9-.8,2.4,0,3.3l9.4,9c.9.9,2.4.8,3.3,0l9-9.4c.9-.9.8-2.4,0-3.3l-9.4-9c-.9-.9-2.4-.8-3.3,0ZM113-37.1v6.7c0,.3-.3.6-.6.6h-6.7c-.3,0-.6-.3-.6-.6v-6.7c0-.3.3-.6.6-.6h6.7c.3,0,.6.3.6.6Z"/>
      </g>
    </g>
    <g>
      <path class="st3" d="M0-43.9h11.5c4.5,0,6.8,2.1,6.8,6.4s-.3,3.2-1,4.1c-.6.9-1.6,1.5-3,1.9h0c.9.4,1.7.7,2.3,1.1.6.4,1,1,1.3,1.8s.5,1.9.5,3.3c0,2.3-.6,4-1.7,5.1s-2.9,1.7-5.3,1.7H0v-25.4ZM10.2-33.9c.2,0,.4-.3.5-.6s.1-.8.1-1.5,0-1.3-.1-1.5c0-.3-.3-.5-.5-.6-.2,0-.7-.1-1.3-.1h-1.4v4.4h1.4c.6,0,1,0,1.3,0ZM10.2-24.2c.2,0,.4-.3.5-.6s.1-.8.1-1.6,0-1.3-.1-1.6c0-.3-.3-.5-.5-.6-.2,0-.7-.1-1.3-.1h-1.4v4.7h1.4c.6,0,1,0,1.3-.1h0ZM33.8-18.3c-1.1.1-2.2.2-3.2.2-2.9,0-5-.4-6.3-1.2-1.3-.8-2.2-2.1-2.7-3.8-.4-1.8-.6-4.4-.6-8s.2-6.2.6-8,1.3-3,2.7-3.8c1.4-.8,3.5-1.2,6.3-1.2s2.1,0,3.1.2c1.1,0,2,.3,2.6.5v5.4c-2.1-.2-3.5-.3-4.1-.3-1.3,0-2.2.1-2.6.4-.5.3-.8.9-.9,1.8-.1.9-.2,2.6-.2,5s0,4.2.2,5.1c.1.9.4,1.5.9,1.7.5.3,1.3.4,2.6.4s2.8,0,4.2-.3v5.4c-.7.2-1.6.3-2.7.4h.1ZM39.6-19.5c-.7-.9-1.1-2.4-1.1-4.4s.2-2.6.5-3.4.9-1.4,1.6-1.8,1.9-.5,3.4-.5,2.2,0,3.6.1v-.7c0-.7,0-1.3-.2-1.5s-.4-.5-.9-.5-1.2-.1-2.4-.1-3,0-4.8.2v-4.8c2.4-.4,4.7-.6,7-.6s4.3.3,5.5.8,2,1.4,2.3,2.4c.4,1.1.5,2.6.5,4.6v11.3h-6.8v-2.1h-.5c-.5.9-1.2,1.5-1.8,1.9-.7.3-1.5.5-2.4.5-1.6,0-2.8-.5-3.5-1.4h0ZM47.1-23.2c.2,0,.3-.3.4-.5,0-.2,0-.8,0-1.6v-1h-1.3c-.6,0-1,.1-1.2.3s-.2.7-.2,1.5,0,1,.2,1.2.5.3,1.1.3.6,0,.8-.1h.1ZM57.6-37.3h6.8v3.1h.5c.5-1.3,1.1-2.1,1.8-2.6s1.8-.7,3.1-.7v6.5c-1.3,0-2.3.1-3.1.4-.7.3-1.3.8-1.6,1.6-.4.8-.5,1.9-.5,3.5v7.3h-7v-19.1h0ZM73.3-19c-.7-.6-1.3-1.5-1.6-2.9-.3-1.4-.5-3.4-.5-5.9s.2-4.5.5-5.9.9-2.4,1.6-3,1.8-.9,3-.9,1.8.2,2.5.5,1.2.9,1.7,1.7h.4v-10.5h7v27.5h-6.8v-2.1h-.5c-.7,1.6-2.1,2.4-4.3,2.4s-2.3-.3-3-.8h0ZM80.5-24c.2-.1.3-.4.3-.8s0-1.6,0-3.1v-2.9c0-.5-.2-.8-.3-.9-.2-.1-.5-.2-.9-.2s-.8,0-1,.2c-.2.1-.3.4-.3.9v6c0,.5,0,.8.3.9s.5.2,1,.2.7,0,.9-.2h0Z"/>
      <g>
        <path class="st3" d="M106.7-49.1l-13.8,14.4c-.6.7-.6,1.7,0,2.4l14.4,13.8c.7.6,1.7.6,2.4,0l13.8-14.4c.6-.7.6-1.7,0-2.4l-14.5-13.8c-.7-.6-1.7-.6-2.4,0h0ZM121-35.1c.6.5.6,1.4,0,2l-11.6,12.1c-.5.6-1.4.6-2,0l-12.1-11.6c-.6-.5-.6-1.4,0-2l11.6-12.1c.5-.6,1.4-.6,2,0l12.1,11.6Z"/>
        <path class="st3" d="M106.3-44.6l-9,9.4c-.9.9-.8,2.4,0,3.3l9.4,9c.9.9,2.4.8,3.3,0l9-9.4c.9-.9.8-2.4,0-3.3l-9.4-9c-.9-.9-2.4-.8-3.3,0ZM112.1-37.1v6.7c0,.3-.3.6-.6.6h-6.7c-.3,0-.6-.3-.6-.6v-6.7c0-.3.3-.6.6-.6h6.7c.3,0,.6.3.6.6Z"/>
      </g>
    </g>
  </g>
  <path class="st1" d="M569.5-252.9h40c15.7,0,23.6,7.4,23.6,22.1s-1.1,11.1-3.3,14.2c-2.2,3.2-5.7,5.3-10.4,6.5v.5c3.2.9,5.9,2,7.9,3.4s3.6,3.5,4.7,6.3,1.7,6.6,1.7,11.4c0,7.9-2,13.9-5.9,17.7-3.9,3.9-10,5.8-18.3,5.8h-39.8v-88.1l-.2.2ZM604.9-218.5c.9-.3,1.4-.9,1.7-1.9s.5-2.7.5-5.2-.2-4.3-.5-5.3-.9-1.6-1.7-1.9c-.9-.3-2.4-.5-4.5-.5h-5v15.2h5c2.1,0,3.6-.2,4.5-.5h0ZM604.9-184.9c.9-.3,1.4-1,1.7-2.1s.5-2.9.5-5.6-.2-4.4-.5-5.5-.9-1.8-1.7-2.1c-.9-.3-2.4-.5-4.5-.5h-5v16.1h5c2.1,0,3.6-.2,4.5-.5h0v.2ZM686.3-164.4c-3.8.4-7.5.6-11,.6-9.9,0-17.2-1.4-21.8-4.1s-7.7-7.2-9.2-13.2c-1.5-6.1-2.2-15.3-2.2-27.7s.7-21.6,2.2-27.7c1.5-6.1,4.6-10.5,9.3-13.2s11.9-4.1,21.8-4.1,7.1.2,10.8.6c3.7.4,6.8,1,9.2,1.7v18.7c-7.4-.6-12.1-.9-14.1-.9-4.4,0-7.5.5-9.1,1.5s-2.6,3-3,6.1-.6,8.9-.6,17.4.2,14.5.6,17.5c.4,3,1.4,5,3,6s4.6,1.5,9.1,1.5,9.7-.3,14.5-.9v18.8c-2.4.6-5.5,1.1-9.3,1.5h-.2ZM706.4-168.7c-2.6-3.2-3.8-8.3-3.8-15.2s.5-9.1,1.6-11.9c1.1-2.8,3-4.8,5.7-6.1s6.7-1.9,11.9-1.9,7.6.2,12.6.5v-2.4c0-2.6-.2-4.3-.7-5.3s-1.4-1.6-2.9-1.9-4.2-.4-8.3-.4-10.3.3-16.6.8v-16.6c8.4-1.4,16.4-2.1,24.1-2.1s14.9,1,18.9,2.9,6.8,4.7,8,8.4,1.9,9,1.9,15.9v39.1h-23.7l-.5-7.2h-1.2c-1.9,3.2-4,5.3-6.3,6.5-2.4,1.1-5.1,1.7-8.4,1.7-5.6,0-9.6-1.6-12.2-4.9h0ZM732.5-181.5c.6-.3,1.1-.9,1.5-1.7.3-.8.4-2.6.4-5.6v-3.4h-4.4c-2.1,0-3.5.4-4,1.1s-.8,2.4-.8,5,.3,3.4.8,4.1,1.8,1,3.8,1,2.1-.2,2.7-.5h0ZM768.7-230.1h23.6l.5,10.6h1.3c1.6-4.4,3.7-7.4,6.3-9.1s6.1-2.6,10.8-2.6v22.4c-4.5,0-8,.5-10.6,1.4-2.5.9-4.4,2.7-5.6,5.5-1.2,2.7-1.9,6.7-1.9,12v25.1h-24.3v-65.3h0ZM823.2-166.7c-2.5-1.9-4.4-5.3-5.6-10.1-1.2-4.8-1.8-11.7-1.8-20.5s.6-15.5,1.8-20.4,3.1-8.3,5.6-10.3c2.6-2,6.1-3,10.5-3s6.2.6,8.5,1.7,4.3,3,5.8,5.8h1.3v-36.4h24.3v95.1h-23.6l-.5-7.3h-1.3c-2.5,5.6-7.4,8.3-14.9,8.3s-7.8-1-10.3-2.9h.2ZM848-184c.6-.4.9-1.3,1.1-2.8.3-1.9.4-5.5.4-10.8s0-8.7-.3-10.1c-.2-1.7-.6-2.8-1.1-3.3-.6-.5-1.7-.7-3.2-.7s-2.8.2-3.4.6c-.6.4-.9,1.5-1,3.1s-.2,5.1-.2,10.3,0,8.6.2,10.3.5,2.7,1,3.1,1.7.6,3.4.6,2.6-.2,3.1-.6h0v.3ZM716.3-343.2l-47.7,50c-2.2,2.3-2.1,6,.2,8.2l50,47.7c2.3,2.2,6,2.1,8.2-.2l47.7-50c2.2-2.3,2.1-6-.2-8.2l-50-47.7c-2.3-2.2-6-2.1-8.2.2ZM766-294.9c1.9,1.9,2,4.9.2,6.9l-40.1,42c-1.9,1.9-4.9,2-6.9.2l-42-40.1c-1.9-1.9-2-4.9-.2-6.9l40.1-42c1.9-1.9,4.9-2,6.9-.2l42,40.1h0ZM715.1-327.8l-31.1,32.6c-3,3.2-2.9,8.2.3,11.3l32.6,31.1c3.2,3,8.2,2.9,11.3-.3l31.1-32.6c3-3.2,2.9-8.2-.3-11.3l-32.6-31.1c-3.2-3-8.2-2.9-11.3.3ZM735.3-301.8l-.3,23.1c0,1.1-.9,1.9-2,1.9l-23.1-.3c-1.1,0-1.9-.9-1.9-2l.3-23.1c0-1.1.9-1.9,2-1.9l23.1.3c1.1,0,1.9.9,1.9,2Z"/>
  <rect class="st2" x="709.7" y="-462" width="93.4" height="93.4"/>
</svg>