<?xml version="1.0" encoding="UTF-8"?>
<svg id="Layer_1" xmlns="http://www.w3.org/2000/svg" xmlns:xlink="http://www.w3.org/1999/xlink" version="1.1" viewBox="0 0 31.5 31.5">
  <!-- Generator: Adobe Illustrator 29.1.0, SVG Export Plug-In . SVG Version: 2.1.0 Build 142)  -->
  <defs>
    <style>
      .st0 {
        fill: #00ae80;
      }

      .st1 {
        fill: url(#radial-gradient);
      }

      .st2 {
        fill: #1a4438;
      }

      .st3 {
        fill: #2e5077;
      }

      .st4 {
        fill: #f6f4f0;
      }
    </style>
    <radialGradient id="radial-gradient" cx="672.8" cy="305" fx="672.8" fy="305" r="125.2" gradientTransform="translate(0 -661.3)" gradientUnits="userSpaceOnUse">
      <stop offset="0" stop-color="#f6f4f0"/>
      <stop offset="1" stop-color="#2e5077"/>
    </radialGradient>
  </defs>
  <path class="st3" d="M-27.8-320.9h15.8c6.2,0,9.3,2.9,9.3,8.7s-.4,4.4-1.3,5.6c-.9,1.2-2.2,2.1-4.1,2.6v.2c1.3.3,2.3.8,3.1,1.3s1.4,1.4,1.8,2.5.7,2.6.7,4.5c0,3.1-.8,5.5-2.3,7s-4,2.3-7.2,2.3h-15.7v-34.7h0ZM-13.9-307.3c.3-.1.6-.4.7-.8s.2-1.1.2-2,0-1.7-.2-2.1c0-.4-.4-.6-.7-.8-.3-.1-.9-.2-1.8-.2h-2v6h2c.8,0,1.4,0,1.8-.2h0ZM-13.9-294c.3-.1.6-.4.7-.8s.2-1.1.2-2.2,0-1.7-.2-2.1c0-.4-.4-.7-.7-.8s-.9-.2-1.8-.2h-2v6.4h2c.8,0,1.4,0,1.8-.2h0ZM18.2-286c-1.5.2-3,.2-4.3.2-3.9,0-6.8-.5-8.6-1.6-1.8-1.1-3-2.8-3.6-5.2s-.9-6.1-.9-10.9.3-8.5.9-10.9c.6-2.4,1.8-4.2,3.7-5.2,1.8-1.1,4.7-1.6,8.6-1.6s2.8,0,4.3.2,2.7.4,3.6.7v7.4c-2.9-.2-4.8-.4-5.5-.4-1.8,0-3,.2-3.6.6-.6.4-1,1.2-1.2,2.4s-.2,3.5-.2,6.9,0,5.7.2,6.9.5,2,1.2,2.4c.6.4,1.8.6,3.6.6s3.8-.1,5.7-.4v7.4c-.9.2-2.2.4-3.7.6h-.2ZM26.2-287.6c-1-1.3-1.5-3.3-1.5-6s.2-3.6.6-4.7c.4-1.1,1.2-1.9,2.2-2.4s2.6-.7,4.7-.7,3,0,5,.2v-1c0-1,0-1.7-.3-2.1s-.6-.6-1.2-.7-1.7-.1-3.3-.1-4.1.1-6.6.3v-6.6c3.3-.5,6.5-.8,9.5-.8s5.9.4,7.5,1.1,2.7,1.9,3.2,3.3c.5,1.5.7,3.6.7,6.3v15.4h-9.3l-.2-2.8h-.5c-.7,1.2-1.6,2.1-2.5,2.5-.9.5-2,.7-3.3.7-2.2,0-3.8-.6-4.8-1.9h.1ZM36.4-292.7c.2-.1.4-.4.6-.7,0-.3.2-1,.2-2.2v-1.4h-1.7c-.8,0-1.4.1-1.6.4s-.3,1-.3,2,0,1.4.3,1.6.7.4,1.5.4.8,0,1.1-.2h0ZM50.7-311.9h9.3l.2,4.2h.5c.6-1.7,1.5-2.9,2.5-3.6s2.4-1,4.2-1v8.8c-1.8,0-3.2.2-4.2.6-1,.4-1.7,1.1-2.2,2.1-.5,1.1-.7,2.6-.7,4.7v9.9h-9.6v-25.7h0ZM72.2-286.9c-1-.8-1.7-2.1-2.2-4s-.7-4.6-.7-8.1.2-6.1.7-8,1.2-3.3,2.2-4.1,2.4-1.2,4.1-1.2,2.4.2,3.4.7,1.7,1.2,2.3,2.3h.5v-14.3h9.6v37.5h-9.3l-.2-2.9h-.5c-1,2.2-2.9,3.3-5.9,3.3s-3.1-.4-4.1-1.1h0ZM82.1-293.7c.2-.1.4-.5.4-1.1s.2-2.1.2-4.2v-4c0-.7-.2-1.1-.4-1.3s-.7-.3-1.3-.3-1.1,0-1.3.2-.3.6-.4,1.2,0,2,0,4.1v4.1c0,.7.2,1.1.4,1.2s.7.2,1.3.2,1,0,1.2-.2h0Z"/>
  <path class="st3" d="M160.1-349.3h40c15.7,0,23.6,7.4,23.6,22.1s-1.1,11.1-3.3,14.2c-2.2,3.2-5.7,5.3-10.4,6.5v.5c3.2.9,5.9,2,7.9,3.4s3.6,3.5,4.7,6.3,1.7,6.6,1.7,11.4c0,7.9-2,13.9-5.9,17.7-3.9,3.9-10,5.8-18.3,5.8h-39.8v-88.1l-.2.2h0ZM195.4-314.9c.9-.3,1.4-.9,1.7-1.9s.5-2.7.5-5.2-.2-4.3-.5-5.3-.9-1.6-1.7-1.9c-.9-.3-2.4-.5-4.5-.5h-5v15.2h5c2.1,0,3.6-.2,4.5-.5h0ZM195.4-281.2c.9-.3,1.4-1,1.7-2.1s.5-2.9.5-5.6-.2-4.4-.5-5.5-.9-1.8-1.7-2.1c-.9-.3-2.4-.5-4.5-.5h-5v16.1h5c2.1,0,3.6-.2,4.5-.5h0v.2h0ZM276.7-260.8c-3.8.4-7.5.6-11,.6-9.9,0-17.2-1.4-21.8-4.1-4.6-2.7-7.7-7.2-9.2-13.2-1.5-6.1-2.2-15.3-2.2-27.7s.7-21.6,2.2-27.7c1.5-6.1,4.6-10.5,9.3-13.2,4.7-2.7,11.9-4.1,21.8-4.1s7.1.2,10.8.6c3.7.4,6.8,1,9.2,1.7v18.7c-7.4-.6-12.1-.9-14.1-.9-4.4,0-7.5.5-9.1,1.5s-2.6,3-3,6.1-.6,8.9-.6,17.4.2,14.5.6,17.5,1.4,5,3,6,4.6,1.5,9.1,1.5,9.7-.3,14.5-.9v18.8c-2.4.6-5.5,1.1-9.3,1.5h-.2,0ZM296.9-265c-2.6-3.2-3.8-8.3-3.8-15.2s.5-9.1,1.6-11.9c1.1-2.8,3-4.8,5.7-6.1s6.7-1.9,11.9-1.9,7.6.2,12.6.5v-2.4c0-2.6-.2-4.3-.7-5.3s-1.4-1.6-2.9-1.9-4.2-.4-8.3-.4-10.3.3-16.6.8v-16.6c8.4-1.4,16.4-2.1,24.1-2.1s14.9,1,18.9,2.9,6.8,4.7,8,8.4,1.9,9,1.9,15.9v39.1h-23.7l-.5-7.2h-1.2c-1.9,3.2-4,5.3-6.3,6.5-2.4,1.1-5.1,1.7-8.4,1.7-5.6,0-9.6-1.6-12.2-4.9h-.1ZM323-277.8c.6-.3,1.1-.9,1.5-1.7.3-.8.4-2.6.4-5.6v-3.4h-4.4c-2.1,0-3.5.4-4,1.1s-.8,2.4-.8,5,.3,3.4.8,4.1,1.8,1,3.8,1,2.1-.2,2.7-.5h0ZM359.1-326.5h23.6l.5,10.6h1.3c1.6-4.4,3.7-7.4,6.3-9.1s6.1-2.6,10.8-2.6v22.4c-4.5,0-8,.5-10.6,1.4-2.5.9-4.4,2.7-5.6,5.5-1.2,2.7-1.9,6.7-1.9,12v25.1h-24.3v-65.3h0ZM413.7-263c-2.5-1.9-4.4-5.3-5.6-10.1s-1.8-11.7-1.8-20.5.6-15.5,1.8-20.4c1.2-4.9,3.1-8.3,5.6-10.3,2.6-2,6.1-3,10.5-3s6.2.6,8.5,1.7,4.3,3,5.8,5.8h1.3v-36.4h24.3v95.1h-23.6l-.5-7.3h-1.3c-2.5,5.6-7.4,8.3-14.9,8.3s-7.8-1-10.3-2.9h.2ZM438.5-280.3c.6-.4.9-1.3,1.1-2.8.3-1.9.4-5.5.4-10.8s0-8.7-.3-10.1c-.2-1.7-.6-2.8-1.1-3.3-.6-.5-1.7-.7-3.2-.7s-2.8.2-3.4.6c-.6.4-.9,1.5-1,3.1s-.2,5.1-.2,10.3,0,8.6.2,10.3.5,2.7,1,3.1,1.7.6,3.4.6,2.6-.2,3.1-.6h0v.3h0Z"/>
  <rect class="st0" x="654.3" y="-570.5" width="106.7" height="106.7"/>
  <g>
    <path class="st3" d="M306.7-439.6l-47.7,50c-2.2,2.3-2.1,6,.2,8.2l50,47.7c2.3,2.2,6,2.1,8.2-.2l47.7-50c2.2-2.3,2.1-6-.2-8.2l-50-47.7c-2.3-2.2-6-2.1-8.2.2ZM356.5-391.2c1.9,1.9,2,4.9.2,6.9l-40.1,42c-1.9,1.9-4.9,2-6.9.2l-42-40.1c-1.9-1.9-2-4.9-.2-6.9l40.1-42c1.9-1.9,4.9-2,6.9-.2l42,40.1h0Z"/>
    <path class="st3" d="M305.5-424.2l-31.1,32.6c-3,3.2-2.9,8.2.3,11.3l32.6,31.1c3.2,3,8.2,2.9,11.3-.3l31.1-32.6c3-3.2,2.9-8.2-.3-11.3l-32.6-31.1c-3.2-3-8.2-2.9-11.3.3ZM325.7-398.1l-.3,23.1c0,1.1-.9,1.9-2,1.9l-23.1-.3c-1.1,0-1.9-.9-1.9-2l.3-23.1c0-1.1.9-1.9,2-1.9l23.1.3c1.1,0,1.9.9,1.9,2Z"/>
  </g>
  <g>
    <path class="st4" d="M160.1-89h40c15.7,0,23.6,7.4,23.6,22.1s-1.1,11.1-3.3,14.2c-2.2,3.2-5.7,5.3-10.4,6.5v.5c3.2.9,5.9,2,7.9,3.4s3.6,3.5,4.7,6.3c1.1,2.8,1.7,6.6,1.7,11.4,0,7.9-2,13.9-5.9,17.7-3.9,3.9-10,5.8-18.3,5.8h-39.8v-87.9h-.2ZM195.4-54.6c.9-.3,1.4-.9,1.7-1.9s.5-2.7.5-5.2-.2-4.3-.5-5.3-.9-1.6-1.7-1.9c-.9-.3-2.4-.5-4.5-.5h-5v15.2h5c2.1,0,3.6-.2,4.5-.5h0ZM195.4-21c.9-.3,1.4-1,1.7-2.1s.5-2.9.5-5.6-.2-4.4-.5-5.5-.9-1.8-1.7-2.1c-.9-.3-2.4-.5-4.5-.5h-5v16.1h5c2.1,0,3.6-.2,4.5-.5h0v.2ZM276.7-.5c-3.8.4-7.5.6-11,.6-9.9,0-17.2-1.4-21.8-4.1-4.6-2.7-7.7-7.2-9.2-13.2-1.5-6.1-2.2-15.3-2.2-27.7s.7-21.6,2.2-27.7,4.6-10.5,9.3-13.2c4.7-2.7,11.9-4.1,21.8-4.1s7.1.2,10.8.6c3.7.4,6.8,1,9.2,1.7v18.7c-7.4-.6-12.1-.9-14.1-.9-4.4,0-7.5.5-9.1,1.5s-2.6,3-3,6.1-.6,8.9-.6,17.4.2,14.5.6,17.5,1.4,5,3,6,4.6,1.5,9.1,1.5,9.7-.3,14.5-.9V-1.9c-2.4.6-5.5,1.1-9.3,1.5h-.2,0ZM296.9-4.8c-2.6-3.2-3.8-8.3-3.8-15.2s.5-9.1,1.6-11.9,3-4.8,5.7-6.1,6.7-1.9,11.9-1.9,7.6.2,12.6.5v-2.4c0-2.6-.2-4.3-.7-5.3s-1.4-1.6-2.9-1.9-4.2-.4-8.3-.4-10.3.3-16.6.8v-16.6c8.4-1.4,16.4-2.1,24.1-2.1s14.9,1,18.9,2.9,6.8,4.7,8,8.4,1.9,9,1.9,15.9V-1h-23.7l-.5-7.2h-1.2c-1.9,3.2-4,5.3-6.3,6.5-2.4,1.1-5.1,1.7-8.4,1.7-5.6,0-9.6-1.6-12.2-4.9h-.1ZM323-17.6c.6-.3,1.1-.9,1.5-1.7.3-.8.4-2.6.4-5.6v-3.4h-4.4c-2.1,0-3.5.4-4,1.1s-.8,2.4-.8,5,.3,3.4.8,4.1,1.8,1,3.8,1,2.1-.2,2.7-.5h0ZM359.1-66.2h23.6l.5,10.6h1.3c1.6-4.4,3.7-7.4,6.3-9.1s6.1-2.6,10.8-2.6v22.4c-4.5,0-8,.5-10.6,1.4-2.5.9-4.4,2.7-5.6,5.5-1.2,2.7-1.9,6.7-1.9,12V-.9h-24.3v-65.3h0ZM413.7-2.8c-2.5-1.9-4.4-5.3-5.6-10.1s-1.8-11.7-1.8-20.5.6-15.5,1.8-20.4c1.2-4.9,3.1-8.3,5.6-10.3,2.6-2,6.1-3,10.5-3s6.2.6,8.5,1.7,4.3,3,5.8,5.8h1.3v-36.4h24.3V-.9h-23.6l-.5-7.3h-1.3c-2.5,5.6-7.4,8.3-14.9,8.3s-7.8-1-10.3-2.9h.2ZM438.5-20.1c.6-.4.9-1.3,1.1-2.8.3-1.9.4-5.5.4-10.8s0-8.7-.3-10.1c-.2-1.7-.6-2.8-1.1-3.3-.6-.5-1.7-.7-3.2-.7s-2.8.2-3.4.6-.9,1.5-1,3.1-.2,5.1-.2,10.3,0,8.6.2,10.3.5,2.7,1,3.1,1.7.6,3.4.6,2.6-.2,3.1-.6h0v.3Z"/>
    <g>
      <path class="st4" d="M306.7-179.3l-47.7,50c-2.2,2.3-2.1,6,.2,8.2l50,47.7c2.3,2.2,6,2.1,8.2-.2l47.7-50c2.2-2.3,2.1-6-.2-8.2l-50-47.7c-2.3-2.2-6-2.1-8.2.2ZM356.5-131c1.9,1.9,2,4.9.2,6.9l-40.1,42c-1.9,1.9-4.9,2-6.9.2l-42-40.1c-1.9-1.9-2-4.9-.2-6.9l40.1-42c1.9-1.9,4.9-2,6.9-.2,0,0,42,40.1,42,40.1Z"/>
      <path class="st4" d="M305.5-163.9l-31.1,32.6c-3,3.2-2.9,8.2.3,11.3l32.6,31.1c3.2,3,8.2,2.9,11.3-.3l31.1-32.6c3-3.2,2.9-8.2-.3-11.3l-32.6-31.1c-3.2-3-8.2-2.9-11.3.3ZM325.7-137.9l-.3,23.1c0,1.1-.9,1.9-2,1.9l-23.1-.3c-1.1,0-1.9-.9-1.9-2l.3-23.1c0-1.1.9-1.9,2-1.9l23.1.3c1.1,0,1.9.9,1.9,2Z"/>
    </g>
  </g>
  <g>
    <path class="st3" d="M157.1-89h40c15.7,0,23.6,7.4,23.6,22.1s-1.1,11.1-3.3,14.2c-2.2,3.2-5.7,5.3-10.4,6.5v.5c3.2.9,5.9,2,7.9,3.4s3.6,3.5,4.7,6.3c1.1,2.8,1.7,6.6,1.7,11.4,0,7.9-2,13.9-5.9,17.7-3.9,3.9-10,5.8-18.3,5.8h-39.8v-87.9h-.2ZM192.4-54.6c.9-.3,1.4-.9,1.7-1.9s.5-2.7.5-5.2-.2-4.3-.5-5.3-.9-1.6-1.7-1.9c-.9-.3-2.4-.5-4.5-.5h-5v15.2h5c2.1,0,3.6-.2,4.5-.5h0ZM192.4-21c.9-.3,1.4-1,1.7-2.1s.5-2.9.5-5.6-.2-4.4-.5-5.5-.9-1.8-1.7-2.1c-.9-.3-2.4-.5-4.5-.5h-5v16.1h5c2.1,0,3.6-.2,4.5-.5h0v.2ZM273.9-.5c-3.8.4-7.5.6-11,.6-9.9,0-17.2-1.4-21.8-4.1-4.6-2.7-7.7-7.2-9.2-13.2-1.5-6.1-2.2-15.3-2.2-27.7s.7-21.6,2.2-27.7,4.6-10.5,9.3-13.2c4.7-2.7,11.9-4.1,21.8-4.1s7.1.2,10.8.6c3.7.4,6.8,1,9.2,1.7v18.7c-7.4-.6-12.1-.9-14.1-.9-4.4,0-7.5.5-9.1,1.5s-2.6,3-3,6.1-.6,8.9-.6,17.4.2,14.5.6,17.5,1.4,5,3,6,4.6,1.5,9.1,1.5,9.7-.3,14.5-.9V-1.9c-2.4.6-5.5,1.1-9.3,1.5h-.2,0ZM294-4.8c-2.6-3.2-3.8-8.3-3.8-15.2s.5-9.1,1.6-11.9,3-4.8,5.7-6.1,6.7-1.9,11.9-1.9,7.6.2,12.6.5v-2.4c0-2.6-.2-4.3-.7-5.3s-1.4-1.6-2.9-1.9-4.2-.4-8.3-.4-10.3.3-16.6.8v-16.6c8.4-1.4,16.4-2.1,24.1-2.1s14.9,1,18.9,2.9,6.8,4.7,8,8.4,1.9,9,1.9,15.9V-1h-23.7l-.5-7.2h-1.2c-1.9,3.2-4,5.3-6.3,6.5-2.4,1.1-5.1,1.7-8.4,1.7-5.6,0-9.6-1.6-12.2-4.9h-.1ZM320-17.6c.6-.3,1.1-.9,1.5-1.7.3-.8.4-2.6.4-5.6v-3.4h-4.4c-2.1,0-3.5.4-4,1.1s-.8,2.4-.8,5,.3,3.4.8,4.1,1.8,1,3.8,1,2.1-.2,2.7-.5h0ZM356.1-66.2h23.6l.5,10.6h1.3c1.6-4.4,3.7-7.4,6.3-9.1s6.1-2.6,10.8-2.6v22.4c-4.5,0-8,.5-10.6,1.4-2.5.9-4.4,2.7-5.6,5.5-1.2,2.7-1.9,6.7-1.9,12V-.9h-24.3v-65.3h0ZM410.7-2.8c-2.5-1.9-4.4-5.3-5.6-10.1s-1.8-11.7-1.8-20.5.6-15.5,1.8-20.4c1.2-4.9,3.1-8.3,5.6-10.3,2.6-2,6.1-3,10.5-3s6.2.6,8.5,1.7,4.3,3,5.8,5.8h1.3v-36.4h24.3V-.9h-23.6l-.5-7.3h-1.3c-2.5,5.6-7.4,8.3-14.9,8.3s-7.8-1-10.3-2.9h.2ZM435.5-20.1c.6-.4.9-1.3,1.1-2.8.3-1.9.4-5.5.4-10.8s0-8.7-.3-10.1c-.2-1.7-.6-2.8-1.1-3.3-.6-.5-1.7-.7-3.2-.7s-2.8.2-3.4.6-.9,1.5-1,3.1-.2,5.1-.2,10.3,0,8.6.2,10.3.5,2.7,1,3.1,1.7.6,3.4.6,2.6-.2,3.1-.6h0v.3Z"/>
    <g>
      <path class="st3" d="M303.9-179.3l-47.7,50c-2.2,2.3-2.1,6,.2,8.2l50,47.7c2.3,2.2,6,2.1,8.2-.2l47.7-50c2.2-2.3,2.1-6-.2-8.2l-50-47.7c-2.3-2.2-6-2.1-8.2.2ZM353.5-131c1.9,1.9,2,4.9.2,6.9l-40.1,42c-1.9,1.9-4.9,2-6.9.2l-42-40.1c-1.9-1.9-2-4.9-.2-6.9l40.1-42c1.9-1.9,4.9-2,6.9-.2,0,0,42,40.1,42,40.1Z"/>
      <path class="st3" d="M302.6-163.9l-31.1,32.6c-3,3.2-2.9,8.2.3,11.3l32.6,31.1c3.2,3,8.2,2.9,11.3-.3l31.1-32.6c3-3.2,2.9-8.2-.3-11.3l-32.6-31.1c-3.2-3-8.2-2.9-11.3.3ZM322.7-137.9l-.3,23.1c0,1.1-.9,1.9-2,1.9l-23.1-.3c-1.1,0-1.9-.9-1.9-2l.3-23.1c0-1.1.9-1.9,2-1.9l23.1.3c1.1,0,1.9.9,1.9,2Z"/>
    </g>
  </g>
  <g>
    <g>
      <path class="st4" d="M-18.9-243.5H-7.4c4.5,0,6.8,2.1,6.8,6.4s-.3,3.2-1,4.1c-.6.9-1.6,1.5-3,1.9h0c.9.4,1.7.7,2.3,1.1s1,1,1.3,1.8.5,1.9.5,3.3c0,2.3-.6,4-1.7,5.1-1.1,1.1-2.9,1.7-5.3,1.7h-11.5v-25.5h.1ZM-8.7-233.5c.2,0,.4-.3.5-.6s0-.8,0-1.5v-1.5c0-.3-.3-.5-.5-.6h-2.7v4.4h1.4c.6,0,1,0,1.3-.1h0ZM-8.7-223.8c.2,0,.4-.3.5-.6s0-.8,0-1.6v-1.6c0-.3-.3-.5-.5-.6h-2.7v4.7h2.7v-.3ZM14.9-217.9c-1.1,0-2.2.2-3.2.2-2.9,0-5-.4-6.3-1.2-1.3-.8-2.2-2.1-2.7-3.8-.4-1.8-.6-4.4-.6-8s.2-6.2.6-8c.4-1.8,1.3-3,2.7-3.8s3.5-1.2,6.3-1.2,2.1,0,3.1.2c1.1,0,2,.3,2.6.5v5.4c-2.1-.2-3.5-.3-4.1-.3-1.3,0-2.2,0-2.6.4-.5.3-.8.9-.9,1.8,0,.9-.2,2.6-.2,5s0,4.2.2,5.1c0,.9.4,1.5.9,1.7.5.3,1.3.4,2.6.4s2.8,0,4.2-.3v5.4c-.7.2-1.6.3-2.7.4h.1ZM20.7-219.1c-.7-.9-1.1-2.4-1.1-4.4s.2-2.6.5-3.4.9-1.4,1.6-1.8,1.9-.5,3.4-.5h3.6v-.7c0-.7,0-1.3-.2-1.5s-.4-.5-.9-.5h-2.4c-1.2,0-3,0-4.8.2v-4.8c2.4-.4,4.7-.6,7-.6s4.3.3,5.5.8,2,1.4,2.3,2.4c.4,1.1.5,2.6.5,4.6v11.3h-6.8v-2.1h-.5c-.5.9-1.2,1.5-1.8,1.9-.7.3-1.5.5-2.4.5-1.6,0-2.8-.5-3.5-1.4h0ZM28.2-222.8c.2,0,.3-.3.4-.5v-2.6h-1.3c-.6,0-1,0-1.2.3s-.2.7-.2,1.5,0,1,.2,1.2.5.3,1.1.3h.8l.2-.2ZM38.7-236.9h6.8v3.1h.5c.5-1.3,1.1-2.1,1.8-2.6s1.8-.7,3.1-.7v6.5c-1.3,0-2.3,0-3.1.4-.7.3-1.3.8-1.6,1.6-.4.8-.5,1.9-.5,3.5v7.3h-7v-18.9h0s0-.2,0-.2ZM54.4-218.5c-.7-.6-1.3-1.5-1.6-2.9-.3-1.4-.5-3.4-.5-5.9s.2-4.5.5-5.9.9-2.4,1.6-3,1.8-.9,3-.9,1.8.2,2.5.5,1.2.9,1.7,1.7h.4v-10.5h7v27.5h-6.8v-2.1h-.5c-.7,1.6-2.1,2.4-4.3,2.4s-2.3-.3-3-.8h0ZM61.6-223.5c.2,0,.3-.4.3-.8v-6c0-.5-.2-.8-.3-.9-.2,0-.5-.2-.9-.2s-.8,0-1,.2c-.2,0-.3.4-.3.9v6c0,.5,0,.8.3.9s.5.2,1,.2.7,0,.9-.2h0Z"/>
      <g>
        <path class="st4" d="M23.6-269.6l-13.8,14.4c-.6.7-.6,1.7,0,2.4l14.4,13.8c.7.6,1.7.6,2.4,0l13.8-14.4c.6-.7.6-1.7,0-2.4l-14.4-13.8c-.7-.6-1.7-.6-2.4,0ZM37.9-255.6c.6.5.6,1.4,0,2l-11.6,12.1c-.5.6-1.4.6-2,0l-12.1-11.6c-.6-.5-.6-1.4,0-2l11.6-12.1c.5-.6,1.4-.6,2,0l12.1,11.6Z"/>
        <path class="st4" d="M23.2-265.1l-9,9.4c-.9.9-.8,2.4,0,3.3l9.4,9c.9.9,2.4.8,3.3,0l9-9.4c.9-.9.8-2.4,0-3.3l-9.4-9c-.9-.9-2.4-.8-3.3,0ZM29.1-257.6v6.7c0,.3-.3.6-.6.6h-6.7c-.3,0-.6-.3-.6-.6v-6.7c0-.3.3-.6.6-.6h6.7c.3,0,.6.3.6.6Z"/>
      </g>
    </g>
    <g>
      <path class="st3" d="M-19.8-243.5h11.5c4.5,0,6.8,2.1,6.8,6.4s-.3,3.2-1,4.1c-.6.9-1.6,1.5-3,1.9h0c.9.4,1.7.7,2.3,1.1s1,1,1.3,1.8.5,1.9.5,3.3c0,2.3-.6,4-1.7,5.1-1.1,1.1-2.9,1.7-5.3,1.7h-11.5v-25.5h.1ZM-9.5-233.5c.2,0,.4-.3.5-.6s0-.8,0-1.5v-1.5c0-.3-.3-.5-.5-.6h-2.7v4.4h1.4c.6,0,1,0,1.3-.1h0ZM-9.5-223.8c.2,0,.4-.3.5-.6s0-.8,0-1.6v-1.6c0-.3-.3-.5-.5-.6h-2.7v4.7h2.7v-.3ZM14-217.9c-1.1,0-2.2.2-3.2.2-2.9,0-5-.4-6.3-1.2-1.3-.8-2.2-2.1-2.7-3.8-.4-1.8-.6-4.4-.6-8s.2-6.2.6-8c.4-1.8,1.3-3,2.7-3.8s3.5-1.2,6.3-1.2,2.1,0,3.1.2c1.1,0,2,.3,2.6.5v5.4c-2.1-.2-3.5-.3-4.1-.3-1.3,0-2.2,0-2.6.4-.5.3-.8.9-.9,1.8,0,.9-.2,2.6-.2,5s0,4.2.2,5.1c0,.9.4,1.5.9,1.7.5.3,1.3.4,2.6.4s2.8,0,4.2-.3v5.4c-.7.2-1.6.3-2.7.4h.1ZM19.8-219.1c-.7-.9-1.1-2.4-1.1-4.4s.2-2.6.5-3.4.9-1.4,1.6-1.8,1.9-.5,3.4-.5h3.6v-.7c0-.7,0-1.3-.2-1.5s-.4-.5-.9-.5h-2.4c-1.2,0-3,0-4.8.2v-4.8c2.4-.4,4.7-.6,7-.6s4.3.3,5.5.8,2,1.4,2.3,2.4c.4,1.1.5,2.6.5,4.6v11.3h-6.8v-2.1h-.5c-.5.9-1.2,1.5-1.8,1.9-.7.3-1.5.5-2.4.5-1.6,0-2.8-.5-3.5-1.4h0ZM27.3-222.8c.2,0,.3-.3.4-.5v-2.6h-1.3c-.6,0-1,0-1.2.3s-.2.7-.2,1.5,0,1,.2,1.2.5.3,1.1.3h.8l.2-.2ZM37.8-236.9h6.8v3.1h.5c.5-1.3,1.1-2.1,1.8-2.6s1.8-.7,3.1-.7v6.5c-1.3,0-2.3,0-3.1.4-.7.3-1.3.8-1.6,1.6-.4.8-.5,1.9-.5,3.5v7.3h-7v-18.9h0s0-.2,0-.2ZM53.6-218.5c-.7-.6-1.3-1.5-1.6-2.9-.3-1.4-.5-3.4-.5-5.9s.2-4.5.5-5.9.9-2.4,1.6-3,1.8-.9,3-.9,1.8.2,2.5.5,1.2.9,1.7,1.7h.4v-10.5h7v27.5h-6.8v-2.1h-.5c-.7,1.6-2.1,2.4-4.3,2.4s-2.3-.3-3-.8h0ZM60.7-223.5c.2,0,.3-.4.3-.8v-6c0-.5-.2-.8-.3-.9-.2,0-.5-.2-.9-.2s-.8,0-1,.2c-.2,0-.3.4-.3.9v6c0,.5,0,.8.3.9s.5.2,1,.2.7,0,.9-.2h0Z"/>
      <g>
        <path class="st3" d="M22.7-269.6l-13.8,14.4c-.6.7-.6,1.7,0,2.4l14.4,13.8c.7.6,1.7.6,2.4,0l13.8-14.4c.6-.7.6-1.7,0-2.4l-14.4-13.8c-.7-.6-1.7-.6-2.4,0ZM37.1-255.6c.6.5.6,1.4,0,2l-11.6,12.1c-.5.6-1.4.6-2,0l-12.1-11.6c-.6-.5-.6-1.4,0-2l11.6-12.1c.5-.6,1.4-.6,2,0l12.1,11.6Z"/>
        <path class="st3" d="M22.3-265.1l-9,9.4c-.9.9-.8,2.4,0,3.3l9.4,9c.9.9,2.4.8,3.3,0l9-9.4c.9-.9.8-2.4,0-3.3l-9.4-9c-.9-.9-2.4-.8-3.3,0ZM28.1-257.6v6.7c0,.3-.3.6-.6.6h-6.7c-.3,0-.6-.3-.6-.6v-6.7c0-.3.3-.6.6-.6h6.7c.3,0,.6.3.6.6Z"/>
      </g>
    </g>
  </g>
  <g>
    <g>
      <path class="st3" d="M-47.9-96.2h11.5c4.5,0,6.8,2.1,6.8,6.4s-.3,3.2-1,4.1c-.6.9-1.6,1.5-3,1.9h0c.9.4,1.7.7,2.3,1.1s1,1,1.3,1.8.5,1.9.5,3.3c0,2.3-.6,4-1.7,5.1s-2.9,1.7-5.3,1.7h-11.4v-25.4ZM-37.7-86.2c.2,0,.4-.3.5-.6s.1-.8.1-1.5,0-1.3-.1-1.5c0-.3-.3-.5-.5-.6-.2,0-.7-.1-1.3-.1h-1.4v4.4h2.7ZM-37.7-76.5c.2,0,.4-.3.5-.6s.1-.8.1-1.6,0-1.3-.1-1.6c0-.3-.3-.5-.5-.6-.2,0-.7-.1-1.3-.1h-1.4v4.7h1.4c.6,0,1,0,1.3-.1h0ZM-14.2-70.6c-1.1.1-2.2.2-3.2.2-2.9,0-5-.4-6.3-1.2-1.3-.8-2.2-2.1-2.7-3.8-.4-1.8-.6-4.4-.6-8s.2-6.2.6-8,1.3-3,2.7-3.8c1.4-.8,3.5-1.2,6.3-1.2s2.1,0,3.1.2c1.1,0,2,.3,2.6.5v5.4c-2.1-.2-3.5-.3-4.1-.3-1.3,0-2.2.1-2.6.4-.5.3-.8.9-.9,1.8-.1.9-.2,2.6-.2,5s0,4.2.2,5.1c.1.9.4,1.5.9,1.7.5.3,1.3.4,2.6.4s2.8,0,4.2-.3v5.4c-.7.2-1.6.3-2.7.4h.1ZM-8.4-71.8c-.7-.9-1.1-2.4-1.1-4.4s.2-2.6.5-3.4.9-1.4,1.6-1.8,1.9-.5,3.4-.5,2.2,0,3.6.1v-.7c0-.7,0-1.3-.2-1.5s-.4-.5-.9-.5-1.2-.1-2.4-.1-3,0-4.8.2v-4.8c2.4-.4,4.7-.6,7-.6s4.3.3,5.5.8,2,1.4,2.3,2.4c.4,1.1.5,2.6.5,4.6v11.3H-.2v-2.1h-.5c-.5.9-1.2,1.5-1.8,1.9-.7.3-1.5.5-2.4.5-1.6,0-2.8-.5-3.5-1.4h0ZM-.8-75.5c.2,0,.3-.3.4-.5v-2.6h-1.3c-.6,0-1,.1-1.2.3s-.2.7-.2,1.5,0,1,.2,1.2.5.3,1.1.3.6,0,.8-.1h.2ZM9.6-89.6h6.8v3.1h.5c.5-1.3,1.1-2.1,1.8-2.6s1.8-.7,3.1-.7v6.5c-1.3,0-2.3.1-3.1.4-.7.3-1.3.8-1.6,1.6-.4.8-.5,1.9-.5,3.5v7.3h-7v-19.1h0ZM25.4-71.3c-.7-.6-1.3-1.5-1.6-2.9-.3-1.4-.5-3.4-.5-5.9s.2-4.5.5-5.9.9-2.4,1.6-3,1.8-.9,3-.9,1.8.2,2.5.5,1.2.9,1.7,1.7h.4v-10.5h7v27.5h-6.8v-2.1h-.5c-.7,1.6-2.1,2.4-4.3,2.4s-2.3-.3-3-.8h0ZM32.6-76.3c.2-.1.3-.4.3-.8v-6c0-.5-.2-.8-.3-.9-.2-.1-.5-.2-.9-.2s-.8,0-1,.2c-.2.1-.3.4-.3.9v6c0,.5,0,.8.3.9s.5.2,1,.2.7,0,.9-.2h0Z"/>
      <g>
        <path class="st3" d="M58.7-101.4l-13.8,14.4c-.6.7-.6,1.7,0,2.4l14.4,13.8c.7.6,1.7.6,2.4,0l13.8-14.4c.6-.7.6-1.7,0-2.4l-14.4-13.8c-.7-.6-1.7-.6-2.4,0ZM73.1-87.4c.6.5.6,1.4,0,2l-11.6,12.1c-.5.6-1.4.6-2,0l-12.1-11.6c-.6-.5-.6-1.4,0-2l11.6-12.1c.5-.6,1.4-.6,2,0l12.1,11.6Z"/>
        <path class="st3" d="M58.4-96.9l-9,9.4c-.9.9-.8,2.4,0,3.3l9.4,9c.9.9,2.4.8,3.3,0l9-9.4c.9-.9.8-2.4,0-3.3l-9.4-9c-.9-.9-2.4-.8-3.3,0ZM64.2-89.4v6.7c0,.3-.3.6-.6.6h-6.7c-.3,0-.6-.3-.6-.6v-6.7c0-.3.3-.6.6-.6h6.7c.3,0,.6.3.6.6Z"/>
      </g>
    </g>
    <g>
      <path class="st4" d="M-48.8-96.2h11.5c4.5,0,6.8,2.1,6.8,6.4s-.3,3.2-1,4.1c-.6.9-1.6,1.5-3,1.9h0c.9.4,1.7.7,2.3,1.1.6.4,1,1,1.3,1.8s.5,1.9.5,3.3c0,2.3-.6,4-1.7,5.1s-2.9,1.7-5.3,1.7h-11.4v-25.4ZM-38.6-86.2c.2,0,.4-.3.5-.6s.1-.8.1-1.5,0-1.3-.1-1.5c0-.3-.3-.5-.5-.6-.2,0-.7-.1-1.3-.1h-1.4v4.4h2.7ZM-38.6-76.5c.2,0,.4-.3.5-.6s.1-.8.1-1.6,0-1.3-.1-1.6c0-.3-.3-.5-.5-.6-.2,0-.7-.1-1.3-.1h-1.4v4.7h1.4c.6,0,1,0,1.3-.1h0ZM-15-70.6c-1.1.1-2.2.2-3.2.2-2.9,0-5-.4-6.3-1.2-1.3-.8-2.2-2.1-2.7-3.8-.4-1.8-.6-4.4-.6-8s.2-6.2.6-8,1.3-3,2.7-3.8c1.4-.8,3.5-1.2,6.3-1.2s2.1,0,3.1.2c1.1,0,2,.3,2.6.5v5.4c-2.1-.2-3.5-.3-4.1-.3-1.3,0-2.2.1-2.6.4-.5.3-.8.9-.9,1.8-.1.9-.2,2.6-.2,5s0,4.2.2,5.1c.1.9.4,1.5.9,1.7.5.3,1.3.4,2.6.4s2.8,0,4.2-.3v5.4c-.7.2-1.6.3-2.7.4h.1ZM-9.2-71.8c-.7-.9-1.1-2.4-1.1-4.4s.2-2.6.5-3.4.9-1.4,1.6-1.8,1.9-.5,3.4-.5,2.2,0,3.6.1v-.7c0-.7,0-1.3-.2-1.5s-.4-.5-.9-.5-1.2-.1-2.4-.1-3,0-4.8.2v-4.8c2.4-.4,4.7-.6,7-.6s4.3.3,5.5.8,2,1.4,2.3,2.4c.4,1.1.5,2.6.5,4.6v11.3H-1v-2.1h-.5c-.5.9-1.2,1.5-1.8,1.9-.7.3-1.5.5-2.4.5-1.6,0-2.8-.5-3.5-1.4h0ZM-1.7-75.5c.2,0,.3-.3.4-.5v-2.6h-1.3c-.6,0-1,.1-1.2.3s-.2.7-.2,1.5,0,1,.2,1.2.5.3,1.1.3.6,0,.8-.1h.2ZM8.8-89.6h6.8v3.1h.5c.5-1.3,1.1-2.1,1.8-2.6s1.8-.7,3.1-.7v6.5c-1.3,0-2.3.1-3.1.4-.7.3-1.3.8-1.6,1.6-.4.8-.5,1.9-.5,3.5v7.3h-7v-19.1h0ZM24.6-71.3c-.7-.6-1.3-1.5-1.6-2.9-.3-1.4-.5-3.4-.5-5.9s.2-4.5.5-5.9.9-2.4,1.6-3,1.8-.9,3-.9,1.8.2,2.5.5,1.2.9,1.7,1.7h.4v-10.5h7v27.5h-6.8v-2.1h-.5c-.7,1.6-2.1,2.4-4.3,2.4s-2.3-.3-3-.8h0ZM31.7-76.3c.2-.1.3-.4.3-.8v-6c0-.5-.2-.8-.3-.9-.2-.1-.5-.2-.9-.2s-.8,0-1,.2c-.2.1-.3.4-.3.9v6c0,.5,0,.8.3.9s.5.2,1,.2.7,0,.9-.2h0Z"/>
      <g>
        <path class="st4" d="M57.9-101.4l-13.8,14.4c-.6.7-.6,1.7,0,2.4l14.4,13.8c.7.6,1.7.6,2.4,0l13.8-14.4c.6-.7.6-1.7,0-2.4l-14.5-13.8c-.7-.6-1.7-.6-2.4,0h0ZM72.2-87.4c.6.5.6,1.4,0,2l-11.6,12.1c-.5.6-1.4.6-2,0l-12.1-11.6c-.6-.5-.6-1.4,0-2l11.6-12.1c.5-.6,1.4-.6,2,0l12.1,11.6Z"/>
        <path class="st4" d="M57.6-96.9l-9,9.4c-.9.9-.8,2.4,0,3.3l9.4,9c.9.9,2.4.8,3.3,0l9-9.4c.9-.9.8-2.4,0-3.3l-9.4-9c-.9-.9-2.4-.8-3.3,0ZM63.3-89.4v6.7c0,.3-.3.6-.6.6h-6.7c-.3,0-.6-.3-.6-.6v-6.7c0-.3.3-.6.6-.6h6.7c.3,0,.6.3.6.6Z"/>
      </g>
    </g>
  </g>
  <g>
    <path class="st4" d="M-47.9-145.8h11.5c4.5,0,6.8,2.1,6.8,6.4s-.3,3.2-1,4.1c-.6.9-1.6,1.5-3,1.9h0c.9.4,1.7.7,2.3,1.1s1,1,1.3,1.8.5,1.9.5,3.3c0,2.3-.6,4-1.7,5.1s-2.9,1.7-5.3,1.7h-11.4v-25.4ZM-37.7-135.8c.2,0,.4-.3.5-.6s.1-.8.1-1.5,0-1.3-.1-1.5c0-.3-.3-.5-.5-.6-.2,0-.7,0-1.3,0h-1.4v4.4h2.7ZM-37.7-126.1c.2,0,.4-.3.5-.6s.1-.8.1-1.6,0-1.3-.1-1.6c0-.3-.3-.5-.5-.6-.2,0-.7-.1-1.3-.1h-1.4v4.7h1.4c.6,0,1,0,1.3-.1h0ZM-14.2-120.2c-1.1.1-2.2.2-3.2.2-2.9,0-5-.4-6.3-1.2-1.3-.8-2.2-2.1-2.7-3.8-.4-1.8-.6-4.4-.6-8s.2-6.2.6-8,1.3-3,2.7-3.8c1.4-.8,3.5-1.2,6.3-1.2s2.1,0,3.1.2c1.1,0,2,.3,2.6.5v5.4c-2.1-.2-3.5-.3-4.1-.3-1.3,0-2.2,0-2.6.4-.5.3-.8.9-.9,1.8-.1.9-.2,2.6-.2,5s0,4.2.2,5.1c.1.9.4,1.5.9,1.7.5.3,1.3.4,2.6.4s2.8,0,4.2-.3v5.4c-.7.2-1.6.3-2.7.4h.1ZM-8.4-121.4c-.7-.9-1.1-2.4-1.1-4.4s.2-2.6.5-3.4.9-1.4,1.6-1.8,1.9-.5,3.4-.5,2.2,0,3.6.1v-.7c0-.7,0-1.3-.2-1.5s-.4-.5-.9-.5-1.2,0-2.4,0-3,0-4.8.2v-4.8c2.4-.4,4.7-.6,7-.6s4.3.3,5.5.8,2,1.4,2.3,2.4c.4,1.1.5,2.6.5,4.6v11.3H-.2v-2.1h-.5c-.5.9-1.2,1.5-1.8,1.9-.7.3-1.5.5-2.4.5-1.6,0-2.8-.5-3.5-1.4h0ZM-.8-125.1c.2,0,.3-.3.4-.5v-2.6h-1.3c-.6,0-1,.1-1.2.3s-.2.7-.2,1.5,0,1,.2,1.2.5.3,1.1.3.6,0,.8-.1h.2ZM9.6-139.2h6.8v3.1h.5c.5-1.3,1.1-2.1,1.8-2.6s1.8-.7,3.1-.7v6.5c-1.3,0-2.3.1-3.1.4-.7.3-1.3.8-1.6,1.6-.4.8-.5,1.9-.5,3.5v7.3h-7v-19.1h0ZM25.4-120.9c-.7-.6-1.3-1.5-1.6-2.9-.3-1.4-.5-3.4-.5-5.9s.2-4.5.5-5.9.9-2.4,1.6-3,1.8-.9,3-.9,1.8.2,2.5.5,1.2.9,1.7,1.7h.4v-10.5h7v27.5h-6.8v-2.1h-.5c-.7,1.6-2.1,2.4-4.3,2.4s-2.3-.3-3-.8h0ZM32.6-125.9c.2-.1.3-.4.3-.8v-6c0-.5-.2-.8-.3-.9-.2-.1-.5-.2-.9-.2s-.8,0-1,.2c-.2.1-.3.4-.3.9v6c0,.5,0,.8.3.9s.5.2,1,.2.7,0,.9-.2h0Z"/>
    <g>
      <path class="st4" d="M58.7-151l-13.8,14.4c-.6.7-.6,1.7,0,2.4l14.4,13.8c.7.6,1.7.6,2.4,0l13.8-14.4c.6-.7.6-1.7,0-2.4l-14.4-13.8c-.7-.6-1.7-.6-2.4,0ZM73.1-137c.6.5.6,1.4,0,2l-11.6,12.1c-.5.6-1.4.6-2,0l-12.1-11.6c-.6-.5-.6-1.4,0-2l11.6-12.1c.5-.6,1.4-.6,2,0l12.1,11.6Z"/>
      <path class="st4" d="M58.4-146.5l-9,9.4c-.9.9-.8,2.4,0,3.3l9.4,9c.9.9,2.4.8,3.3,0l9-9.4c.9-.9.8-2.4,0-3.3l-9.4-9c-.9-.9-2.4-.8-3.3,0ZM64.2-139v6.7c0,.3-.3.6-.6.6h-6.7c-.3,0-.6-.3-.6-.6v-6.7c0-.3.3-.6.6-.6h6.7c.3,0,.6.3.6.6Z"/>
    </g>
  </g>
  <g>
    <path class="st3" d="M-48.8-145.8h11.5c4.5,0,6.8,2.1,6.8,6.4s-.3,3.2-1,4.1c-.6.9-1.6,1.5-3,1.9h0c.9.4,1.7.7,2.3,1.1.6.4,1,1,1.3,1.8s.5,1.9.5,3.3c0,2.3-.6,4-1.7,5.1s-2.9,1.7-5.3,1.7h-11.4v-25.4ZM-38.6-135.8c.2,0,.4-.3.5-.6s.1-.8.1-1.5,0-1.3-.1-1.5c0-.3-.3-.5-.5-.6-.2,0-.7,0-1.3,0h-1.4v4.4h2.7ZM-38.6-126.1c.2,0,.4-.3.5-.6s.1-.8.1-1.6,0-1.3-.1-1.6c0-.3-.3-.5-.5-.6-.2,0-.7-.1-1.3-.1h-1.4v4.7h1.4c.6,0,1,0,1.3-.1h0ZM-15-120.2c-1.1.1-2.2.2-3.2.2-2.9,0-5-.4-6.3-1.2-1.3-.8-2.2-2.1-2.7-3.8-.4-1.8-.6-4.4-.6-8s.2-6.2.6-8,1.3-3,2.7-3.8c1.4-.8,3.5-1.2,6.3-1.2s2.1,0,3.1.2c1.1,0,2,.3,2.6.5v5.4c-2.1-.2-3.5-.3-4.1-.3-1.3,0-2.2,0-2.6.4-.5.3-.8.9-.9,1.8-.1.9-.2,2.6-.2,5s0,4.2.2,5.1c.1.9.4,1.5.9,1.7.5.3,1.3.4,2.6.4s2.8,0,4.2-.3v5.4c-.7.2-1.6.3-2.7.4h.1ZM-9.2-121.4c-.7-.9-1.1-2.4-1.1-4.4s.2-2.6.5-3.4.9-1.4,1.6-1.8,1.9-.5,3.4-.5,2.2,0,3.6.1v-.7c0-.7,0-1.3-.2-1.5s-.4-.5-.9-.5-1.2,0-2.4,0-3,0-4.8.2v-4.8c2.4-.4,4.7-.6,7-.6s4.3.3,5.5.8,2,1.4,2.3,2.4c.4,1.1.5,2.6.5,4.6v11.3H-1v-2.1h-.5c-.5.9-1.2,1.5-1.8,1.9-.7.3-1.5.5-2.4.5-1.6,0-2.8-.5-3.5-1.4h0ZM-1.7-125.1c.2,0,.3-.3.4-.5v-2.6h-1.3c-.6,0-1,.1-1.2.3s-.2.7-.2,1.5,0,1,.2,1.2.5.3,1.1.3.6,0,.8-.1h.2ZM8.8-139.2h6.8v3.1h.5c.5-1.3,1.1-2.1,1.8-2.6s1.8-.7,3.1-.7v6.5c-1.3,0-2.3.1-3.1.4-.7.3-1.3.8-1.6,1.6-.4.8-.5,1.9-.5,3.5v7.3h-7v-19.1h0ZM24.6-120.9c-.7-.6-1.3-1.5-1.6-2.9-.3-1.4-.5-3.4-.5-5.9s.2-4.5.5-5.9.9-2.4,1.6-3,1.8-.9,3-.9,1.8.2,2.5.5,1.2.9,1.7,1.7h.4v-10.5h7v27.5h-6.8v-2.1h-.5c-.7,1.6-2.1,2.4-4.3,2.4s-2.3-.3-3-.8h0ZM31.7-125.9c.2-.1.3-.4.3-.8v-6c0-.5-.2-.8-.3-.9-.2-.1-.5-.2-.9-.2s-.8,0-1,.2c-.2.1-.3.4-.3.9v6c0,.5,0,.8.3.9s.5.2,1,.2.7,0,.9-.2h0Z"/>
    <g>
      <path class="st3" d="M57.9-151l-13.8,14.4c-.6.7-.6,1.7,0,2.4l14.4,13.8c.7.6,1.7.6,2.4,0l13.8-14.4c.6-.7.6-1.7,0-2.4l-14.5-13.8c-.7-.6-1.7-.6-2.4,0h0ZM72.2-137c.6.5.6,1.4,0,2l-11.6,12.1c-.5.6-1.4.6-2,0l-12.1-11.6c-.6-.5-.6-1.4,0-2l11.6-12.1c.5-.6,1.4-.6,2,0l12.1,11.6Z"/>
      <path class="st3" d="M57.6-146.5l-9,9.4c-.9.9-.8,2.4,0,3.3l9.4,9c.9.9,2.4.8,3.3,0l9-9.4c.9-.9.8-2.4,0-3.3l-9.4-9c-.9-.9-2.4-.8-3.3,0ZM63.3-139v6.7c0,.3-.3.6-.6.6h-6.7c-.3,0-.6-.3-.6-.6v-6.7c0-.3.3-.6.6-.6h6.7c.3,0,.6.3.6.6Z"/>
    </g>
  </g>
  <g>
    <path class="st3" d="M14.3.4L.4,14.8c-.6.7-.6,1.7,0,2.4l14.4,13.8c.7.6,1.7.6,2.4,0l13.8-14.4c.6-.7.6-1.7,0-2.4L16.6.4c-.7-.6-1.7-.6-2.4,0h0ZM28.6,14.4c.6.5.6,1.4,0,2l-11.6,12.1c-.5.6-1.4.6-2,0L2.9,16.9c-.6-.5-.6-1.4,0-2L14.5,2.8c.5-.6,1.4-.6,2,0l12.1,11.6Z"/>
    <path class="st3" d="M13.9,4.9L4.9,14.3c-.9.9-.8,2.4,0,3.3l9.4,9c.9.9,2.4.8,3.3,0l9-9.4c.9-.9.8-2.4,0-3.3l-9.4-9c-.9-.9-2.4-.8-3.3,0ZM19.7,12.4v6.7c0,.3-.3.6-.6.6h-6.7c-.3,0-.6-.3-.6-.6v-6.7c0-.3.3-.6.6-.6h6.7c.3,0,.6.3.6.6Z"/>
  </g>
  <path class="st1" d="M520.7-354.8h40c15.7,0,23.6,7.4,23.6,22.1s-1.1,11.1-3.3,14.2c-2.2,3.2-5.7,5.3-10.4,6.5v.5c3.2.9,5.9,2,7.9,3.4s3.6,3.5,4.7,6.3,1.7,6.6,1.7,11.4c0,7.9-2,13.9-5.9,17.7-3.9,3.9-10,5.8-18.3,5.8h-39.8v-88.1l-.2.2h0ZM556.2-320.4c.9-.3,1.4-.9,1.7-1.9s.5-2.7.5-5.2-.2-4.3-.5-5.3-.9-1.6-1.7-1.9c-.9-.3-2.4-.5-4.5-.5h-5v15.2h5c2.1,0,3.6-.2,4.5-.5h0ZM556.2-286.8c.9-.3,1.4-1,1.7-2.1s.5-2.9.5-5.6-.2-4.4-.5-5.5-.9-1.8-1.7-2.1c-.9-.3-2.4-.5-4.5-.5h-5v16.1h5c2.1,0,3.6-.2,4.5-.5h0v.2h0ZM637.5-266.3c-3.8.4-7.5.6-11,.6-9.9,0-17.2-1.4-21.8-4.1s-7.7-7.2-9.2-13.2c-1.5-6.1-2.2-15.3-2.2-27.7s.7-21.6,2.2-27.7c1.5-6.1,4.6-10.5,9.3-13.2s11.9-4.1,21.8-4.1,7.1.2,10.8.6c3.7.4,6.8,1,9.2,1.7v18.7c-7.4-.6-12.1-.9-14.1-.9-4.4,0-7.5.5-9.1,1.5s-2.6,3-3,6.1-.6,8.9-.6,17.4.2,14.5.6,17.5c.4,3,1.4,5,3,6s4.6,1.5,9.1,1.5,9.7-.3,14.5-.9v18.8c-2.4.6-5.5,1.1-9.3,1.5h-.2ZM657.7-270.6c-2.6-3.2-3.8-8.3-3.8-15.2s.5-9.1,1.6-11.9c1.1-2.8,3-4.8,5.7-6.1s6.7-1.9,11.9-1.9,7.6.2,12.6.5v-2.4c0-2.6-.2-4.3-.7-5.3s-1.4-1.6-2.9-1.9-4.2-.4-8.3-.4-10.3.3-16.6.8v-16.6c8.4-1.4,16.4-2.1,24.1-2.1s14.9,1,18.9,2.9,6.8,4.7,8,8.4,1.9,9,1.9,15.9v39.1h-23.7l-.5-7.2h-1.2c-1.9,3.2-4,5.3-6.3,6.5-2.4,1.1-5.1,1.7-8.4,1.7-5.6,0-9.6-1.6-12.2-4.9h0ZM683.7-283.4c.6-.3,1.1-.9,1.5-1.7.3-.8.4-2.6.4-5.6v-3.4h-4.4c-2.1,0-3.5.4-4,1.1s-.8,2.4-.8,5,.3,3.4.8,4.1,1.8,1,3.8,1,2.1-.2,2.7-.5h0ZM720-332h23.6l.5,10.6h1.3c1.6-4.4,3.7-7.4,6.3-9.1s6.1-2.6,10.8-2.6v22.4c-4.5,0-8,.5-10.6,1.4-2.5.9-4.4,2.7-5.6,5.5-1.2,2.7-1.9,6.7-1.9,12v25.1h-24.3v-65.3h0ZM774.5-268.6c-2.5-1.9-4.4-5.3-5.6-10.1-1.2-4.8-1.8-11.7-1.8-20.5s.6-15.5,1.8-20.4,3.1-8.3,5.6-10.3c2.6-2,6.1-3,10.5-3s6.2.6,8.5,1.7,4.3,3,5.8,5.8h1.3v-36.4h24.3v95.1h-23.6l-.5-7.3h-1.3c-2.5,5.6-7.4,8.3-14.9,8.3s-7.8-1-10.3-2.9h.2ZM799.2-285.9c.6-.4.9-1.3,1.1-2.8.3-1.9.4-5.5.4-10.8s0-8.7-.3-10.1c-.2-1.7-.6-2.8-1.1-3.3-.6-.5-1.7-.7-3.2-.7s-2.8.2-3.4.6c-.6.4-.9,1.5-1,3.1s-.2,5.1-.2,10.3,0,8.6.2,10.3.5,2.7,1,3.1,1.7.6,3.4.6,2.6-.2,3.1-.6h0v.3h0ZM667.5-445.1l-47.7,50c-2.2,2.3-2.1,6,.2,8.2l50,47.7c2.3,2.2,6,2.1,8.2-.2l47.7-50c2.2-2.3,2.1-6-.2-8.2l-50-47.7c-2.3-2.2-6-2.1-8.2.2ZM717.2-396.8c1.9,1.9,2,4.9.2,6.9l-40.1,42c-1.9,1.9-4.9,2-6.9.2l-42-40.1c-1.9-1.9-2-4.9-.2-6.9l40.1-42c1.9-1.9,4.9-2,6.9-.2l42,40.1h0ZM666.3-429.7l-31.1,32.6c-3,3.2-2.9,8.2.3,11.3l32.6,31.1c3.2,3,8.2,2.9,11.3-.3l31.1-32.6c3-3.2,2.9-8.2-.3-11.3l-32.6-31.1c-3.2-3-8.2-2.9-11.3.3ZM686.5-403.7l-.3,23.1c0,1.1-.9,1.9-2,1.9l-23.1-.3c-1.1,0-1.9-.9-1.9-2l.3-23.1c0-1.1.9-1.9,2-1.9l23.1.3c1.1,0,1.9.9,1.9,2Z"/>
  <rect class="st2" x="661" y="-563.9" width="93.4" height="93.4"/>
</svg>